<svg width="60" height="40" viewBox="0 0 60 40" fill="none" xmlns="http://www.w3.org/2000/svg">
<rect x="0.5" y="0.5" width="59" height="39" rx="5.5" fill="white"/>
<path d="M33.2028 19.5096C33.2028 25.6821 28.0858 30.6858 21.7738 30.6858C15.4617 30.6858 10.3448 25.6821 10.3448 19.5096C10.3448 13.3371 15.4617 8.33331 21.7738 8.33331C28.0858 8.33331 33.2028 13.3371 33.2028 19.5096Z" fill="#ED0006"/>
<path d="M48.0295 19.5096C48.0295 25.6821 42.9126 30.6858 36.6006 30.6858C30.2885 30.6858 25.1716 25.6821 25.1716 19.5096C25.1716 13.3371 30.2885 8.33331 36.6006 8.33331C42.9126 8.33331 48.0295 13.3371 48.0295 19.5096Z" fill="#0099DF"/>
<path fill-rule="evenodd" clip-rule="evenodd" d="M29.1872 28.016C31.6446 25.966 33.2028 22.9158 33.2028 19.5096C33.2028 16.1034 31.6446 13.0532 29.1872 11.0032C26.7299 13.0532 25.1717 16.1034 25.1717 19.5096C25.1717 22.9158 26.7299 25.966 29.1872 28.016Z" fill="#6C6BBD"/>
<rect x="0.5" y="0.5" width="59" height="39" rx="5.5" stroke="#F2F4F7"/>
</svg>
