<svg width="60" height="40" viewBox="0 0 60 40" fill="none" xmlns="http://www.w3.org/2000/svg">
<rect x="0.5" y="0.5" width="59" height="39" rx="5.5" fill="white"/>
<path d="M18.1351 8.33411H27.3734C28.6629 8.33411 29.465 9.38007 29.1642 10.6676L24.8631 29.0432C24.5596 30.3262 23.2684 31.3731 21.978 31.3731H12.7406C11.4528 31.3731 10.649 30.3262 10.9498 29.0432L15.2527 10.6676C15.5535 9.38007 16.844 8.33411 18.1351 8.33411Z" fill="#E21836"/>
<path d="M26.6041 8.33331H37.2279C38.5172 8.33331 37.9358 9.37928 37.6325 10.6668L33.3321 29.0424C33.0304 30.3254 33.1245 31.3723 31.8325 31.3723H21.2087C19.9167 31.3723 19.1171 30.3254 19.4206 29.0424L23.7208 10.6668C24.0261 9.37928 25.3139 8.33331 26.6041 8.33331Z" fill="#00447C"/>
<path d="M36.8067 8.33331H46.0449C47.3363 8.33331 48.1384 9.37928 47.8351 10.6668L43.5347 29.0424C43.2311 30.3254 41.9391 31.3723 40.6479 31.3723H31.414C30.1219 31.3723 29.3205 30.3254 29.6231 29.0424L33.9242 10.6668C34.225 9.37928 35.5146 8.33331 36.8067 8.33331Z" fill="#007B84"/>
<path d="M20.5474 14.2221C19.5974 14.2318 19.3168 14.2221 19.2272 14.2011C19.1927 14.364 18.5516 17.3067 18.5498 17.3092C18.4118 17.9045 18.3114 18.3289 17.9702 18.603C17.7766 18.7623 17.5505 18.8391 17.2884 18.8391C16.8671 18.8391 16.6217 18.631 16.5805 18.2361L16.5726 18.1006C16.5726 18.1006 16.7009 17.3031 16.7009 17.2986C16.7009 17.2986 17.3738 14.617 17.4942 14.2625C17.5005 14.2423 17.5023 14.2318 17.5039 14.2221C16.1943 14.2336 15.9621 14.2221 15.9462 14.2011C15.9374 14.23 15.9049 14.3962 15.9049 14.3962L15.2179 17.4187L15.1589 17.6751L15.0448 18.5136C15.0448 18.7623 15.0939 18.9653 15.1916 19.1369C15.5046 19.6812 16.3974 19.7627 16.9025 19.7627C17.5532 19.7627 18.1637 19.6252 18.5762 19.374C19.2922 18.953 19.4796 18.2949 19.6467 17.71L19.7241 17.41C19.7241 17.41 20.4172 14.6248 20.535 14.2625C20.5395 14.2423 20.5413 14.2318 20.5474 14.2221ZM22.9056 16.469C22.7385 16.469 22.4331 16.5093 22.1589 16.6431C22.0594 16.694 21.9652 16.7527 21.8659 16.8111L21.9555 16.4892L21.9065 16.4349C21.3248 16.5521 21.1947 16.5678 20.6574 16.6431L20.6124 16.6729C20.55 17.1876 20.4946 17.5746 20.2634 18.5862C20.1753 18.9591 20.0839 19.3355 19.9922 19.7075L20.017 19.7548C20.5676 19.7259 20.7346 19.7259 21.2131 19.7337L21.2519 19.6918C21.3127 19.3819 21.3206 19.3093 21.4552 18.6817C21.5185 18.3841 21.6504 17.7303 21.7155 17.4975C21.8351 17.4424 21.9531 17.3881 22.0657 17.3881C22.3338 17.3881 22.3012 17.6209 22.2908 17.7137C22.2793 17.8694 22.1816 18.3781 22.0814 18.8148L22.0145 19.0967C21.9679 19.3048 21.9168 19.5072 21.8702 19.7135L21.8905 19.7548C22.4331 19.7259 22.5986 19.7259 23.0621 19.7337L23.1165 19.6918C23.2003 19.2078 23.2249 19.0783 23.3735 18.3736L23.4482 18.0498C23.5935 17.4161 23.6664 17.0948 23.5565 16.8331C23.4403 16.5398 23.1616 16.469 22.9056 16.469ZM25.5399 17.1324C25.2515 17.1876 25.0675 17.2243 24.8847 17.2481C24.7034 17.277 24.5266 17.3032 24.2479 17.3417L24.2258 17.3617L24.2055 17.3776C24.1765 17.5842 24.1562 17.7628 24.1177 17.9727C24.0851 18.1898 24.0349 18.4365 23.9531 18.791C23.8898 19.0624 23.8572 19.1569 23.8212 19.2524C23.786 19.3478 23.7473 19.4406 23.6762 19.7075L23.6928 19.7321L23.7068 19.7547C23.9673 19.7424 24.1378 19.7337 24.3129 19.7321C24.4879 19.7258 24.6692 19.7321 24.9497 19.7337L24.9743 19.7137L25.0006 19.6918C25.0412 19.4511 25.0472 19.3864 25.072 19.269C25.0966 19.143 25.1389 18.9687 25.2427 18.5031C25.2918 18.2844 25.3465 18.0664 25.3974 17.8432C25.4503 17.6209 25.5057 17.402 25.5584 17.1833L25.5505 17.1569L25.5399 17.1324ZM25.5461 16.2379C25.284 16.084 24.8239 16.1328 24.5143 16.3455C24.2056 16.5538 24.1705 16.8496 24.4317 17.0056C24.6893 17.1553 25.1511 17.1107 25.458 16.8962C25.7661 16.6834 25.8046 16.3903 25.5461 16.2379ZM27.1312 19.803C27.6615 19.803 28.205 19.6576 28.6142 19.226C28.929 18.876 29.0733 18.3553 29.1233 18.1408C29.2861 17.4301 29.1593 17.0982 29.0001 16.8961C28.7583 16.588 28.3309 16.4892 27.8876 16.4892C27.6209 16.4892 26.986 16.5154 26.4899 16.9705C26.1337 17.2988 25.9691 17.7442 25.8698 18.1713C25.7696 18.6064 25.6543 19.3898 26.3782 19.6813C26.6016 19.7768 26.9236 19.803 27.1312 19.803ZM27.0898 18.2038C27.212 17.6656 27.3564 17.2138 27.7247 17.2138C28.0134 17.2138 28.0344 17.55 27.906 18.09C27.883 18.2098 27.7777 18.6555 27.6351 18.8453C27.5356 18.9854 27.4178 19.0703 27.2877 19.0703C27.249 19.0703 27.0186 19.0703 27.015 18.7299C27.0132 18.5619 27.0476 18.3902 27.0898 18.2038ZM30.4489 19.7338L30.4903 19.6919C30.5491 19.382 30.5588 19.3092 30.689 18.6818C30.754 18.3842 30.8887 17.7304 30.952 17.4975C31.0717 17.4422 31.1877 17.388 31.3039 17.388C31.5703 17.388 31.5379 17.6208 31.5273 17.7135C31.5176 17.8695 31.4199 18.3779 31.3179 18.8146L31.2546 19.0965C31.2062 19.3049 31.1535 19.507 31.1069 19.7136L31.1271 19.7548C31.6716 19.7259 31.8308 19.7259 32.2969 19.7338L32.3532 19.6919C32.435 19.2077 32.457 19.0781 32.6101 18.3737L32.6831 18.0497C32.829 17.416 32.9029 17.0949 32.7948 16.8332C32.6752 16.5399 32.3946 16.4691 32.1422 16.4691C31.9749 16.4691 31.668 16.5092 31.3953 16.6432C31.2978 16.694 31.2001 16.7525 31.1042 16.8112L31.1877 16.4892L31.1429 16.4348C30.5615 16.5522 30.4286 16.5679 29.8921 16.6432L29.8509 16.673C29.7858 17.1877 29.7329 17.5744 29.5016 18.5863C29.4136 18.9592 29.3221 19.3356 29.2307 19.7076L29.2553 19.7548C29.8067 19.7259 29.9713 19.7259 30.4489 19.7338ZM34.4493 19.7547C34.4835 19.5885 34.6868 18.603 34.6886 18.603C34.6886 18.603 34.8618 17.8799 34.8724 17.8537C34.8724 17.8537 34.9269 17.7784 34.9813 17.7486H35.0615C35.8179 17.7486 36.672 17.7486 37.3414 17.2586C37.7969 16.9225 38.1083 16.4261 38.2473 15.823C38.2833 15.6751 38.3099 15.4992 38.3099 15.3233C38.3099 15.0923 38.2633 14.8637 38.1286 14.6851C37.7872 14.2099 37.1074 14.2011 36.3227 14.1975C36.3202 14.1975 35.9359 14.2011 35.9359 14.2011C34.9314 14.2134 34.5285 14.2099 34.363 14.1897C34.3491 14.2625 34.3227 14.392 34.3227 14.392C34.3227 14.392 33.9629 16.0515 33.9629 16.0542C33.9629 16.0542 33.1018 19.5824 33.0613 19.7487C33.9383 19.7381 34.2979 19.7381 34.4493 19.7547ZM35.116 16.8068C35.116 16.8068 35.4986 15.1507 35.4968 15.157L35.5092 15.0721L35.5146 15.0073L35.6675 15.023C35.6675 15.023 36.4565 15.0905 36.4749 15.0923C36.7863 15.2121 36.9147 15.5211 36.8251 15.9245C36.7433 16.2931 36.5031 16.6029 36.1944 16.7526C35.9401 16.8794 35.6287 16.89 35.3078 16.89H35.1002L35.116 16.8068ZM37.498 18.2345C37.3969 18.6633 37.2807 19.4467 38.001 19.7259C38.2307 19.8231 38.4365 19.852 38.6457 19.8415C38.8666 19.8296 39.0713 19.7194 39.2609 19.5607C39.2438 19.6259 39.2267 19.6912 39.2095 19.7566L39.2422 19.7985C39.7603 19.7768 39.9211 19.7768 40.4825 19.781L40.5333 19.7425C40.6153 19.263 40.6925 18.7973 40.9056 17.88C41.0094 17.4406 41.1129 17.0054 41.2194 16.5678L41.2028 16.5197C40.6232 16.6265 40.4683 16.6494 39.9107 16.728L39.8684 16.7623C39.8628 16.8069 39.8569 16.8497 39.8515 16.8925C39.7648 16.7531 39.6392 16.6342 39.4453 16.56C39.1974 16.463 38.6151 16.588 38.1145 17.0415C37.7628 17.3653 37.5939 17.809 37.498 18.2345ZM38.7153 18.2607C38.8394 17.7321 38.9819 17.2849 39.3512 17.2849C39.5847 17.2849 39.7076 17.4993 39.6826 17.865C39.6628 17.9562 39.6414 18.0523 39.616 18.161C39.5791 18.318 39.539 18.4738 39.5 18.6297C39.4604 18.7364 39.4142 18.837 39.3636 18.904C39.2685 19.038 39.0425 19.1211 38.9123 19.1211C38.8754 19.1211 38.6475 19.1211 38.6396 18.7868C38.6378 18.6203 38.6723 18.4489 38.7153 18.2607ZM45.0721 16.5154L45.0273 16.4645C44.4537 16.5801 44.3499 16.5985 43.823 16.6693L43.7843 16.7079C43.7825 16.7141 43.7809 16.7238 43.7782 16.7325L43.7764 16.7238C43.3842 17.6243 43.3957 17.43 43.0764 18.139C43.0746 18.1067 43.0746 18.0866 43.0728 18.0523L42.9928 16.5154L42.9426 16.4645C42.3418 16.5801 42.3276 16.5985 41.7728 16.6693L41.7296 16.7079C41.7235 16.7262 41.7235 16.7464 41.7199 16.7684L41.7235 16.7762C41.7929 17.1289 41.7762 17.0502 41.8458 17.6068C41.8782 17.88 41.9214 18.1547 41.9539 18.4245C42.0086 18.876 42.0392 19.0982 42.1061 19.7873C41.7314 20.4026 41.6427 20.6354 41.2819 21.1754L41.2844 21.1808L41.0304 21.5805C41.0014 21.6226 40.975 21.6515 40.9381 21.6639C40.8976 21.6838 40.8449 21.6874 40.7717 21.6874H40.631L40.4218 22.3798L41.1394 22.3921C41.5607 22.3903 41.8255 22.1942 41.968 21.9307L42.4193 21.1613H42.4121L42.4596 21.107C42.7631 20.4568 45.0721 16.5154 45.0721 16.5154ZM37.498 25.6087H37.1935L38.3203 21.9001H38.6941L38.8128 21.5181L38.8242 21.9429C38.8103 22.2055 39.0179 22.4384 39.5633 22.3998H40.194L40.4111 21.6857H40.1737C40.0373 21.6857 39.974 21.6514 39.9819 21.5779L39.9704 21.1457H38.8024V21.1479C38.4248 21.1558 37.2971 21.184 37.0688 21.2445C36.7925 21.3153 36.5013 21.5237 36.5013 21.5237L36.6157 21.1412H35.5232L35.2955 21.9001L34.1537 25.6654H33.9321L33.7148 26.3744H35.8909L35.8179 26.6108H36.8902L36.9614 26.3744H37.2622L37.498 25.6087ZM36.6051 22.6537C36.4302 22.7019 36.1046 22.848 36.1046 22.848L36.3942 21.9001H37.2622L37.0528 22.5907C37.0528 22.5907 36.7846 22.6064 36.6051 22.6537ZM36.6218 24.0077C36.6218 24.0077 36.3491 24.0418 36.1697 24.0821C35.9929 24.1355 35.6614 24.3035 35.6614 24.3035L35.9605 23.3172H36.833L36.6218 24.0077ZM36.1354 25.6175H35.2647L35.5171 24.785H36.3852L36.1354 25.6175ZM38.2324 23.3172H39.4875L39.3072 23.8984H38.0354L37.8444 24.5339H38.9572L38.1146 25.7145C38.0556 25.8012 38.0027 25.8319 37.9439 25.8563C37.885 25.8861 37.8075 25.9211 37.7179 25.9211H37.4092L37.197 26.6171H38.0045C38.4242 26.6171 38.6722 26.427 38.8552 26.1777L39.433 25.3907L39.5571 26.1898C39.5834 26.3394 39.6915 26.427 39.7647 26.4611C39.8455 26.5014 39.9291 26.5707 40.0471 26.581C40.1736 26.5864 40.265 26.5906 40.3258 26.5906H40.7226L40.9608 25.8117H40.8043C40.7145 25.8117 40.5598 25.7967 40.5335 25.7687C40.5071 25.7347 40.5071 25.6822 40.4929 25.6025L40.3671 24.8016H39.8516L40.0777 24.5339H41.347L41.5422 23.8984H40.3671L40.5501 23.3172H41.7217L41.939 22.6004H38.4461L38.2324 23.3172ZM27.6316 25.7793L27.9245 24.8095H29.1285L29.3485 24.0883H28.1434L28.3274 23.4913H29.505L29.7232 22.7929H26.7766L26.5629 23.4913H27.2323L27.0538 24.0883H26.3825L26.1601 24.8219H26.8293L26.4388 26.1049C26.3861 26.2747 26.4636 26.3395 26.5127 26.4184C26.5629 26.4952 26.6138 26.5461 26.7282 26.575C26.8462 26.6012 26.927 26.6169 27.0369 26.6169H28.3942L28.6361 25.8179L28.0344 25.9001C27.9182 25.9001 27.5964 25.8862 27.6316 25.7793ZM27.7697 21.1368L27.4646 21.6856C27.3993 21.8055 27.3405 21.8799 27.2876 21.9141C27.241 21.943 27.1486 21.9551 27.0149 21.9551H26.8557L26.6429 22.6572H27.1716C27.4258 22.6572 27.6211 22.5644 27.7143 22.518C27.8145 22.4647 27.8408 22.4952 27.9183 22.4208L28.0969 22.2668H29.7478L29.9669 21.5359H28.7584L28.9694 21.1368H27.7697ZM30.2071 25.7934C30.1789 25.7531 30.1992 25.6821 30.2422 25.5342L30.6934 24.0479H32.2987C32.5327 24.0445 32.7015 24.0419 32.8114 24.034C32.9294 24.0217 33.0578 23.9798 33.1976 23.9045C33.3419 23.8256 33.4158 23.7425 33.4782 23.647C33.5477 23.5518 33.6594 23.3434 33.7554 23.0221L34.3226 21.1413L32.6567 21.1509C32.6567 21.1509 32.1438 21.2262 31.9179 21.3093C31.6901 21.4021 31.3645 21.6611 31.3645 21.6611L31.5149 21.1455H30.4858L29.0452 25.9001C28.994 26.0847 28.9598 26.2187 28.9519 26.2991C28.9492 26.3859 29.0618 26.4717 29.1348 26.5364C29.221 26.6012 29.3485 26.5907 29.4707 26.6012C29.5993 26.6108 29.7822 26.6169 30.0346 26.6169H30.8254L31.0681 25.8013L30.3602 25.8678C30.2845 25.8678 30.2298 25.8275 30.2071 25.7934ZM30.9846 23.0441H32.6707L32.5635 23.3784C32.5484 23.3862 32.5124 23.3618 32.3408 23.382H30.8808L30.9846 23.0441ZM31.3223 21.9228H33.0226L32.9004 22.3255C32.9004 22.3255 32.099 22.3176 31.9706 22.3412C31.4059 22.4384 31.076 22.7387 31.076 22.7387L31.3223 21.9228ZM32.6012 24.4979C32.5873 24.5479 32.5652 24.5783 32.5344 24.6012C32.5001 24.6232 32.4448 24.631 32.3621 24.631H32.1219L32.136 24.2239H31.1367L31.0962 26.2143C31.0946 26.3579 31.1086 26.441 31.2142 26.5076C31.3198 26.5907 31.6452 26.6013 32.0831 26.6013H32.7093L32.9354 25.8562L32.3903 25.886L32.209 25.8966C32.1842 25.886 32.1606 25.8764 32.1342 25.8502C32.1113 25.8275 32.0725 25.8414 32.0788 25.6978L32.0831 25.1876L32.6548 25.1641C32.9636 25.1641 33.0955 25.0641 33.2081 24.9689C33.3155 24.8777 33.3506 24.7728 33.3912 24.631L33.4871 24.1793H32.7015L32.6012 24.4979Z" fill="#FEFEFE"/>
<rect x="0.5" y="0.5" width="59" height="39" rx="5.5" stroke="#F2F4F7"/>
</svg>
