<svg width="60" height="40" viewBox="0 0 60 40" fill="none" xmlns="http://www.w3.org/2000/svg">
<rect x="0.5" y="0.5" width="59" height="39" rx="5.5" fill="white"/>
<path fill-rule="evenodd" clip-rule="evenodd" d="M29.6189 28.0491C27.5775 29.7125 24.9293 30.7166 22.0357 30.7166C15.579 30.7166 10.3448 25.7171 10.3448 19.55C10.3448 13.3828 15.579 8.3833 22.0357 8.3833C24.9293 8.3833 27.5775 9.38746 29.6189 11.0509C31.6604 9.38746 34.3085 8.3833 37.2022 8.3833C43.6589 8.3833 48.893 13.3828 48.893 19.55C48.893 25.7171 43.6589 30.7166 37.2022 30.7166C34.3085 30.7166 31.6604 29.7125 29.6189 28.0491Z" fill="#ED0006"/>
<path fill-rule="evenodd" clip-rule="evenodd" d="M29.6189 28.0491C32.1326 26.0009 33.7265 22.9532 33.7265 19.55C33.7265 16.1467 32.1326 13.099 29.6189 11.0509C31.6604 9.38746 34.3085 8.3833 37.2022 8.3833C43.6588 8.3833 48.893 13.3828 48.893 19.55C48.893 25.7171 43.6588 30.7166 37.2022 30.7166C34.3085 30.7166 31.6604 29.7125 29.6189 28.0491Z" fill="#F9A000"/>
<path fill-rule="evenodd" clip-rule="evenodd" d="M29.619 28.049C32.1326 26.0009 33.7265 22.9532 33.7265 19.55C33.7265 16.1467 32.1326 13.0991 29.619 11.0509C27.1053 13.0991 25.5114 16.1467 25.5114 19.55C25.5114 22.9532 27.1053 26.0009 29.619 28.049Z" fill="#FF5E00"/>
<rect x="0.5" y="0.5" width="59" height="39" rx="5.5" stroke="#F2F4F7"/>
</svg>
