<svg width="60" height="40" viewBox="0 0 60 40" fill="none" xmlns="http://www.w3.org/2000/svg">
<rect x="0.5" y="0.5" width="59" height="39" rx="5.5" fill="white"/>
<path fill-rule="evenodd" clip-rule="evenodd" d="M18.5349 26.4304H14.9836L12.3206 16.3206C12.1942 15.8556 11.9258 15.4444 11.5311 15.2507C10.5458 14.7637 9.46021 14.3762 8.27587 14.1807V13.7915H13.9967C14.7863 13.7915 15.3784 14.3762 15.4771 15.0552L16.8588 22.3477L20.4084 13.7915H23.861L18.5349 26.4304ZM25.8349 26.4304H22.481L25.2427 13.7915H28.5966L25.8349 26.4304ZM32.9357 17.2929C33.0344 16.6121 33.6266 16.2229 34.3174 16.2229C35.4031 16.1252 36.5857 16.3206 37.5726 16.8059L38.1648 14.0847C37.1778 13.6955 36.0922 13.5 35.107 13.5C31.8518 13.5 29.4831 15.2507 29.4831 17.6804C29.4831 19.5288 31.1609 20.4993 32.3453 21.084C33.6266 21.667 34.12 22.0563 34.0213 22.6393C34.0213 23.5137 33.0344 23.903 32.0492 23.903C30.8648 23.903 29.6805 23.6115 28.5966 23.1245L28.0044 25.8474C29.1888 26.3327 30.4701 26.5281 31.6544 26.5281C35.3044 26.6242 37.5726 24.8752 37.5726 22.25C37.5726 18.9441 32.9357 18.7504 32.9357 17.2929ZM49.3104 26.4304L46.6473 13.7915H43.7869C43.1947 13.7915 42.6026 14.1807 42.4052 14.7637L37.4739 26.4304H40.9265L41.6156 24.5837H45.8578L46.2526 26.4304H49.3104ZM44.2804 17.1951L45.2656 21.9585H42.5039L44.2804 17.1951Z" fill="#172B85"/>
<rect x="0.5" y="0.5" width="59" height="39" rx="5.5" stroke="#F2F4F7"/>
</svg>
