<svg width="90" height="90" viewBox="0 0 90 90" fill="none" xmlns="http://www.w3.org/2000/svg">
<path d="M3.72 1.79999H1.8V3.71999H3.72V1.79999Z" fill="#F9F9F9"/>
<path d="M5.64 1.79999H3.72V3.71999H5.64V1.79999Z" fill="#F9F9F9"/>
<path d="M7.56 1.79999H5.64V3.71999H7.56V1.79999Z" fill="#F9F9F9"/>
<path d="M9.48 1.79999H7.56V3.71999H9.48V1.79999Z" fill="#F9F9F9"/>
<path d="M11.4 1.79999H9.48V3.71999H11.4V1.79999Z" fill="#F9F9F9"/>
<path d="M13.32 1.79999H11.4V3.71999H13.32V1.79999Z" fill="#F9F9F9"/>
<path d="M15.24 1.79999H13.32V3.71999H15.24V1.79999Z" fill="#F9F9F9"/>
<path d="M19.08 1.79999H17.16V3.71999H19.08V1.79999Z" fill="#F9F9F9"/>
<path d="M21 1.79999H19.08V3.71999H21V1.79999Z" fill="#F9F9F9"/>
<path d="M22.92 1.79999H21V3.71999H22.92V1.79999Z" fill="#F9F9F9"/>
<path d="M24.84 1.79999H22.92V3.71999H24.84V1.79999Z" fill="#F9F9F9"/>
<path d="M26.76 1.79999H24.84V3.71999H26.76V1.79999Z" fill="#F9F9F9"/>
<path d="M30.6 1.79999H28.68V3.71999H30.6V1.79999Z" fill="#F9F9F9"/>
<path d="M34.44 1.79999H32.52V3.71999H34.44V1.79999Z" fill="#F9F9F9"/>
<path d="M36.36 1.79999H34.44V3.71999H36.36V1.79999Z" fill="#F9F9F9"/>
<path d="M38.28 1.79999H36.36V3.71999H38.28V1.79999Z" fill="#F9F9F9"/>
<path d="M40.2 1.79999H38.28V3.71999H40.2V1.79999Z" fill="#F9F9F9"/>
<path d="M44.04 1.79999H42.12V3.71999H44.04V1.79999Z" fill="#F9F9F9"/>
<path d="M45.96 1.79999H44.04V3.71999H45.96V1.79999Z" fill="#F9F9F9"/>
<path d="M47.88 1.79999H45.96V3.71999H47.88V1.79999Z" fill="#F9F9F9"/>
<path d="M49.8 1.79999H47.88V3.71999H49.8V1.79999Z" fill="#F9F9F9"/>
<path d="M55.56 1.79999H53.64V3.71999H55.56V1.79999Z" fill="#F9F9F9"/>
<path d="M72.84 1.79999H70.92V3.71999H72.84V1.79999Z" fill="#F9F9F9"/>
<path d="M76.68 1.79999H74.76V3.71999H76.68V1.79999Z" fill="#F9F9F9"/>
<path d="M78.6 1.79999H76.68V3.71999H78.6V1.79999Z" fill="#F9F9F9"/>
<path d="M80.52 1.79999H78.6V3.71999H80.52V1.79999Z" fill="#F9F9F9"/>
<path d="M82.44 1.79999H80.52V3.71999H82.44V1.79999Z" fill="#F9F9F9"/>
<path d="M84.36 1.79999H82.44V3.71999H84.36V1.79999Z" fill="#F9F9F9"/>
<path d="M86.28 1.79999H84.36V3.71999H86.28V1.79999Z" fill="#F9F9F9"/>
<path d="M88.2 1.79999H86.28V3.71999H88.2V1.79999Z" fill="#F9F9F9"/>
<path d="M3.72 3.71999H1.8V5.63999H3.72V3.71999Z" fill="#F9F9F9"/>
<path d="M15.24 3.71999H13.32V5.63999H15.24V3.71999Z" fill="#F9F9F9"/>
<path d="M22.92 3.71999H21V5.63999H22.92V3.71999Z" fill="#F9F9F9"/>
<path d="M24.84 3.71999H22.92V5.63999H24.84V3.71999Z" fill="#F9F9F9"/>
<path d="M32.52 3.71999H30.6V5.63999H32.52V3.71999Z" fill="#F9F9F9"/>
<path d="M36.36 3.71999H34.44V5.63999H36.36V3.71999Z" fill="#F9F9F9"/>
<path d="M38.28 3.71999H36.36V5.63999H38.28V3.71999Z" fill="#F9F9F9"/>
<path d="M42.12 3.71999H40.2V5.63999H42.12V3.71999Z" fill="#F9F9F9"/>
<path d="M44.04 3.71999H42.12V5.63999H44.04V3.71999Z" fill="#F9F9F9"/>
<path d="M51.72 3.71999H49.8V5.63999H51.72V3.71999Z" fill="#F9F9F9"/>
<path d="M53.64 3.71999H51.72V5.63999H53.64V3.71999Z" fill="#F9F9F9"/>
<path d="M55.56 3.71999H53.64V5.63999H55.56V3.71999Z" fill="#F9F9F9"/>
<path d="M61.32 3.71999H59.4V5.63999H61.32V3.71999Z" fill="#F9F9F9"/>
<path d="M63.24 3.71999H61.32V5.63999H63.24V3.71999Z" fill="#F9F9F9"/>
<path d="M65.16 3.71999H63.24V5.63999H65.16V3.71999Z" fill="#F9F9F9"/>
<path d="M70.92 3.71999H69V5.63999H70.92V3.71999Z" fill="#F9F9F9"/>
<path d="M76.68 3.71999H74.76V5.63999H76.68V3.71999Z" fill="#F9F9F9"/>
<path d="M88.2 3.71999H86.28V5.63999H88.2V3.71999Z" fill="#F9F9F9"/>
<path d="M3.72 5.63999H1.8V7.55999H3.72V5.63999Z" fill="#F9F9F9"/>
<path d="M7.56 5.63999H5.64V7.55999H7.56V5.63999Z" fill="#F9F9F9"/>
<path d="M9.48 5.63999H7.56V7.55999H9.48V5.63999Z" fill="#F9F9F9"/>
<path d="M11.4 5.63999H9.48V7.55999H11.4V5.63999Z" fill="#F9F9F9"/>
<path d="M15.24 5.63999H13.32V7.55999H15.24V5.63999Z" fill="#F9F9F9"/>
<path d="M21 5.63999H19.08V7.55999H21V5.63999Z" fill="#F9F9F9"/>
<path d="M22.92 5.63999H21V7.55999H22.92V5.63999Z" fill="#F9F9F9"/>
<path d="M26.76 5.63999H24.84V7.55999H26.76V5.63999Z" fill="#F9F9F9"/>
<path d="M28.68 5.63999H26.76V7.55999H28.68V5.63999Z" fill="#F9F9F9"/>
<path d="M40.2 5.63999H38.28V7.55999H40.2V5.63999Z" fill="#F9F9F9"/>
<path d="M42.12 5.63999H40.2V7.55999H42.12V5.63999Z" fill="#F9F9F9"/>
<path d="M47.88 5.63999H45.96V7.55999H47.88V5.63999Z" fill="#F9F9F9"/>
<path d="M49.8 5.63999H47.88V7.55999H49.8V5.63999Z" fill="#F9F9F9"/>
<path d="M51.72 5.63999H49.8V7.55999H51.72V5.63999Z" fill="#F9F9F9"/>
<path d="M55.56 5.63999H53.64V7.55999H55.56V5.63999Z" fill="#F9F9F9"/>
<path d="M59.4 5.63999H57.48V7.55999H59.4V5.63999Z" fill="#F9F9F9"/>
<path d="M61.32 5.63999H59.4V7.55999H61.32V5.63999Z" fill="#F9F9F9"/>
<path d="M63.24 5.63999H61.32V7.55999H63.24V5.63999Z" fill="#F9F9F9"/>
<path d="M65.16 5.63999H63.24V7.55999H65.16V5.63999Z" fill="#F9F9F9"/>
<path d="M67.08 5.63999H65.16V7.55999H67.08V5.63999Z" fill="#F9F9F9"/>
<path d="M70.92 5.63999H69V7.55999H70.92V5.63999Z" fill="#F9F9F9"/>
<path d="M76.68 5.63999H74.76V7.55999H76.68V5.63999Z" fill="#F9F9F9"/>
<path d="M80.52 5.63999H78.6V7.55999H80.52V5.63999Z" fill="#F9F9F9"/>
<path d="M82.44 5.63999H80.52V7.55999H82.44V5.63999Z" fill="#F9F9F9"/>
<path d="M84.36 5.63999H82.44V7.55999H84.36V5.63999Z" fill="#F9F9F9"/>
<path d="M88.2 5.63999H86.28V7.55999H88.2V5.63999Z" fill="#F9F9F9"/>
<path d="M3.72 7.55999H1.8V9.47999H3.72V7.55999Z" fill="#F9F9F9"/>
<path d="M7.56 7.55999H5.64V9.47999H7.56V7.55999Z" fill="#F9F9F9"/>
<path d="M9.48 7.55999H7.56V9.47999H9.48V7.55999Z" fill="#F9F9F9"/>
<path d="M11.4 7.55999H9.48V9.47999H11.4V7.55999Z" fill="#F9F9F9"/>
<path d="M15.24 7.55999H13.32V9.47999H15.24V7.55999Z" fill="#F9F9F9"/>
<path d="M19.08 7.55999H17.16V9.47999H19.08V7.55999Z" fill="#F9F9F9"/>
<path d="M24.84 7.55999H22.92V9.47999H24.84V7.55999Z" fill="#F9F9F9"/>
<path d="M26.76 7.55999H24.84V9.47999H26.76V7.55999Z" fill="#F9F9F9"/>
<path d="M30.6 7.55999H28.68V9.47999H30.6V7.55999Z" fill="#F9F9F9"/>
<path d="M34.44 7.55999H32.52V9.47999H34.44V7.55999Z" fill="#F9F9F9"/>
<path d="M40.2 7.55999H38.28V9.47999H40.2V7.55999Z" fill="#F9F9F9"/>
<path d="M42.12 7.55999H40.2V9.47999H42.12V7.55999Z" fill="#F9F9F9"/>
<path d="M44.04 7.55999H42.12V9.47999H44.04V7.55999Z" fill="#F9F9F9"/>
<path d="M45.96 7.55999H44.04V9.47999H45.96V7.55999Z" fill="#F9F9F9"/>
<path d="M53.64 7.55999H51.72V9.47999H53.64V7.55999Z" fill="#F9F9F9"/>
<path d="M57.48 7.55999H55.56V9.47999H57.48V7.55999Z" fill="#F9F9F9"/>
<path d="M59.4 7.55999H57.48V9.47999H59.4V7.55999Z" fill="#F9F9F9"/>
<path d="M63.24 7.55999H61.32V9.47999H63.24V7.55999Z" fill="#F9F9F9"/>
<path d="M70.92 7.55999H69V9.47999H70.92V7.55999Z" fill="#F9F9F9"/>
<path d="M72.84 7.55999H70.92V9.47999H72.84V7.55999Z" fill="#F9F9F9"/>
<path d="M76.68 7.55999H74.76V9.47999H76.68V7.55999Z" fill="#F9F9F9"/>
<path d="M80.52 7.55999H78.6V9.47999H80.52V7.55999Z" fill="#F9F9F9"/>
<path d="M82.44 7.55999H80.52V9.47999H82.44V7.55999Z" fill="#F9F9F9"/>
<path d="M84.36 7.55999H82.44V9.47999H84.36V7.55999Z" fill="#F9F9F9"/>
<path d="M88.2 7.55999H86.28V9.47999H88.2V7.55999Z" fill="#F9F9F9"/>
<path d="M3.72 9.47999H1.8V11.4H3.72V9.47999Z" fill="#F9F9F9"/>
<path d="M7.56 9.47999H5.64V11.4H7.56V9.47999Z" fill="#F9F9F9"/>
<path d="M9.48 9.47999H7.56V11.4H9.48V9.47999Z" fill="#F9F9F9"/>
<path d="M11.4 9.47999H9.48V11.4H11.4V9.47999Z" fill="#F9F9F9"/>
<path d="M15.24 9.47999H13.32V11.4H15.24V9.47999Z" fill="#F9F9F9"/>
<path d="M21 9.47999H19.08V11.4H21V9.47999Z" fill="#F9F9F9"/>
<path d="M24.84 9.47999H22.92V11.4H24.84V9.47999Z" fill="#F9F9F9"/>
<path d="M30.6 9.47999H28.68V11.4H30.6V9.47999Z" fill="#F9F9F9"/>
<path d="M32.52 9.47999H30.6V11.4H32.52V9.47999Z" fill="#F9F9F9"/>
<path d="M38.28 9.47999H36.36V11.4H38.28V9.47999Z" fill="#F9F9F9"/>
<path d="M42.12 9.47999H40.2V11.4H42.12V9.47999Z" fill="#F9F9F9"/>
<path d="M44.04 9.47999H42.12V11.4H44.04V9.47999Z" fill="#F9F9F9"/>
<path d="M45.96 9.47999H44.04V11.4H45.96V9.47999Z" fill="#F9F9F9"/>
<path d="M47.88 9.47999H45.96V11.4H47.88V9.47999Z" fill="#F9F9F9"/>
<path d="M49.8 9.47999H47.88V11.4H49.8V9.47999Z" fill="#F9F9F9"/>
<path d="M51.72 9.47999H49.8V11.4H51.72V9.47999Z" fill="#F9F9F9"/>
<path d="M55.56 9.47999H53.64V11.4H55.56V9.47999Z" fill="#F9F9F9"/>
<path d="M57.48 9.47999H55.56V11.4H57.48V9.47999Z" fill="#F9F9F9"/>
<path d="M59.4 9.47999H57.48V11.4H59.4V9.47999Z" fill="#F9F9F9"/>
<path d="M65.16 9.47999H63.24V11.4H65.16V9.47999Z" fill="#F9F9F9"/>
<path d="M67.08 9.47999H65.16V11.4H67.08V9.47999Z" fill="#F9F9F9"/>
<path d="M69 9.47999H67.08V11.4H69V9.47999Z" fill="#F9F9F9"/>
<path d="M70.92 9.47999H69V11.4H70.92V9.47999Z" fill="#F9F9F9"/>
<path d="M72.84 9.47999H70.92V11.4H72.84V9.47999Z" fill="#F9F9F9"/>
<path d="M76.68 9.47999H74.76V11.4H76.68V9.47999Z" fill="#F9F9F9"/>
<path d="M80.52 9.47999H78.6V11.4H80.52V9.47999Z" fill="#F9F9F9"/>
<path d="M82.44 9.47999H80.52V11.4H82.44V9.47999Z" fill="#F9F9F9"/>
<path d="M84.36 9.47999H82.44V11.4H84.36V9.47999Z" fill="#F9F9F9"/>
<path d="M88.2 9.47999H86.28V11.4H88.2V9.47999Z" fill="#F9F9F9"/>
<path d="M3.72 11.4H1.8V13.32H3.72V11.4Z" fill="#F9F9F9"/>
<path d="M15.24 11.4H13.32V13.32H15.24V11.4Z" fill="#F9F9F9"/>
<path d="M19.08 11.4H17.16V13.32H19.08V11.4Z" fill="#F9F9F9"/>
<path d="M22.92 11.4H21V13.32H22.92V11.4Z" fill="#F9F9F9"/>
<path d="M24.84 11.4H22.92V13.32H24.84V11.4Z" fill="#F9F9F9"/>
<path d="M28.68 11.4H26.76V13.32H28.68V11.4Z" fill="#F9F9F9"/>
<path d="M32.52 11.4H30.6V13.32H32.52V11.4Z" fill="#F9F9F9"/>
<path d="M36.36 11.4H34.44V13.32H36.36V11.4Z" fill="#F9F9F9"/>
<path d="M42.12 11.4H40.2V13.32H42.12V11.4Z" fill="#F9F9F9"/>
<path d="M49.8 11.4H47.88V13.32H49.8V11.4Z" fill="#F9F9F9"/>
<path d="M53.64 11.4H51.72V13.32H53.64V11.4Z" fill="#F9F9F9"/>
<path d="M55.56 11.4H53.64V13.32H55.56V11.4Z" fill="#F9F9F9"/>
<path d="M59.4 11.4H57.48V13.32H59.4V11.4Z" fill="#F9F9F9"/>
<path d="M61.32 11.4H59.4V13.32H61.32V11.4Z" fill="#F9F9F9"/>
<path d="M65.16 11.4H63.24V13.32H65.16V11.4Z" fill="#F9F9F9"/>
<path d="M67.08 11.4H65.16V13.32H67.08V11.4Z" fill="#F9F9F9"/>
<path d="M76.68 11.4H74.76V13.32H76.68V11.4Z" fill="#F9F9F9"/>
<path d="M88.2 11.4H86.28V13.32H88.2V11.4Z" fill="#F9F9F9"/>
<path d="M3.72 13.32H1.8V15.24H3.72V13.32Z" fill="#F9F9F9"/>
<path d="M5.64 13.32H3.72V15.24H5.64V13.32Z" fill="#F9F9F9"/>
<path d="M7.56 13.32H5.64V15.24H7.56V13.32Z" fill="#F9F9F9"/>
<path d="M9.48 13.32H7.56V15.24H9.48V13.32Z" fill="#F9F9F9"/>
<path d="M11.4 13.32H9.48V15.24H11.4V13.32Z" fill="#F9F9F9"/>
<path d="M13.32 13.32H11.4V15.24H13.32V13.32Z" fill="#F9F9F9"/>
<path d="M15.24 13.32H13.32V15.24H15.24V13.32Z" fill="#F9F9F9"/>
<path d="M19.08 13.32H17.16V15.24H19.08V13.32Z" fill="#F9F9F9"/>
<path d="M22.92 13.32H21V15.24H22.92V13.32Z" fill="#F9F9F9"/>
<path d="M26.76 13.32H24.84V15.24H26.76V13.32Z" fill="#F9F9F9"/>
<path d="M30.6 13.32H28.68V15.24H30.6V13.32Z" fill="#F9F9F9"/>
<path d="M34.44 13.32H32.52V15.24H34.44V13.32Z" fill="#F9F9F9"/>
<path d="M38.28 13.32H36.36V15.24H38.28V13.32Z" fill="#F9F9F9"/>
<path d="M42.12 13.32H40.2V15.24H42.12V13.32Z" fill="#F9F9F9"/>
<path d="M45.96 13.32H44.04V15.24H45.96V13.32Z" fill="#F9F9F9"/>
<path d="M49.8 13.32H47.88V15.24H49.8V13.32Z" fill="#F9F9F9"/>
<path d="M53.64 13.32H51.72V15.24H53.64V13.32Z" fill="#F9F9F9"/>
<path d="M57.48 13.32H55.56V15.24H57.48V13.32Z" fill="#F9F9F9"/>
<path d="M61.32 13.32H59.4V15.24H61.32V13.32Z" fill="#F9F9F9"/>
<path d="M65.16 13.32H63.24V15.24H65.16V13.32Z" fill="#F9F9F9"/>
<path d="M69 13.32H67.08V15.24H69V13.32Z" fill="#F9F9F9"/>
<path d="M72.84 13.32H70.92V15.24H72.84V13.32Z" fill="#F9F9F9"/>
<path d="M76.68 13.32H74.76V15.24H76.68V13.32Z" fill="#F9F9F9"/>
<path d="M78.6 13.32H76.68V15.24H78.6V13.32Z" fill="#F9F9F9"/>
<path d="M80.52 13.32H78.6V15.24H80.52V13.32Z" fill="#F9F9F9"/>
<path d="M82.44 13.32H80.52V15.24H82.44V13.32Z" fill="#F9F9F9"/>
<path d="M84.36 13.32H82.44V15.24H84.36V13.32Z" fill="#F9F9F9"/>
<path d="M86.28 13.32H84.36V15.24H86.28V13.32Z" fill="#F9F9F9"/>
<path d="M88.2 13.32H86.28V15.24H88.2V13.32Z" fill="#F9F9F9"/>
<path d="M22.92 15.24H21V17.16H22.92V15.24Z" fill="#F9F9F9"/>
<path d="M26.76 15.24H24.84V17.16H26.76V15.24Z" fill="#F9F9F9"/>
<path d="M28.68 15.24H26.76V17.16H28.68V15.24Z" fill="#F9F9F9"/>
<path d="M32.52 15.24H30.6V17.16H32.52V15.24Z" fill="#F9F9F9"/>
<path d="M34.44 15.24H32.52V17.16H34.44V15.24Z" fill="#F9F9F9"/>
<path d="M36.36 15.24H34.44V17.16H36.36V15.24Z" fill="#F9F9F9"/>
<path d="M38.28 15.24H36.36V17.16H38.28V15.24Z" fill="#F9F9F9"/>
<path d="M40.2 15.24H38.28V17.16H40.2V15.24Z" fill="#F9F9F9"/>
<path d="M42.12 15.24H40.2V17.16H42.12V15.24Z" fill="#F9F9F9"/>
<path d="M49.8 15.24H47.88V17.16H49.8V15.24Z" fill="#F9F9F9"/>
<path d="M51.72 15.24H49.8V17.16H51.72V15.24Z" fill="#F9F9F9"/>
<path d="M53.64 15.24H51.72V17.16H53.64V15.24Z" fill="#F9F9F9"/>
<path d="M55.56 15.24H53.64V17.16H55.56V15.24Z" fill="#F9F9F9"/>
<path d="M57.48 15.24H55.56V17.16H57.48V15.24Z" fill="#F9F9F9"/>
<path d="M59.4 15.24H57.48V17.16H59.4V15.24Z" fill="#F9F9F9"/>
<path d="M65.16 15.24H63.24V17.16H65.16V15.24Z" fill="#F9F9F9"/>
<path d="M67.08 15.24H65.16V17.16H67.08V15.24Z" fill="#F9F9F9"/>
<path d="M69 15.24H67.08V17.16H69V15.24Z" fill="#F9F9F9"/>
<path d="M70.92 15.24H69V17.16H70.92V15.24Z" fill="#F9F9F9"/>
<path d="M72.84 15.24H70.92V17.16H72.84V15.24Z" fill="#F9F9F9"/>
<path d="M13.32 17.16H11.4V19.08H13.32V17.16Z" fill="#F9F9F9"/>
<path d="M15.24 17.16H13.32V19.08H15.24V17.16Z" fill="#F9F9F9"/>
<path d="M19.08 17.16H17.16V19.08H19.08V17.16Z" fill="#F9F9F9"/>
<path d="M22.92 17.16H21V19.08H22.92V17.16Z" fill="#F9F9F9"/>
<path d="M28.68 17.16H26.76V19.08H28.68V17.16Z" fill="#F9F9F9"/>
<path d="M32.52 17.16H30.6V19.08H32.52V17.16Z" fill="#F9F9F9"/>
<path d="M34.44 17.16H32.52V19.08H34.44V17.16Z" fill="#F9F9F9"/>
<path d="M38.28 17.16H36.36V19.08H38.28V17.16Z" fill="#F9F9F9"/>
<path d="M40.2 17.16H38.28V19.08H40.2V17.16Z" fill="#F9F9F9"/>
<path d="M42.12 17.16H40.2V19.08H42.12V17.16Z" fill="#F9F9F9"/>
<path d="M44.04 17.16H42.12V19.08H44.04V17.16Z" fill="#F9F9F9"/>
<path d="M45.96 17.16H44.04V19.08H45.96V17.16Z" fill="#F9F9F9"/>
<path d="M47.88 17.16H45.96V19.08H47.88V17.16Z" fill="#F9F9F9"/>
<path d="M49.8 17.16H47.88V19.08H49.8V17.16Z" fill="#F9F9F9"/>
<path d="M55.56 17.16H53.64V19.08H55.56V17.16Z" fill="#F9F9F9"/>
<path d="M57.48 17.16H55.56V19.08H57.48V17.16Z" fill="#F9F9F9"/>
<path d="M59.4 17.16H57.48V19.08H59.4V17.16Z" fill="#F9F9F9"/>
<path d="M63.24 17.16H61.32V19.08H63.24V17.16Z" fill="#F9F9F9"/>
<path d="M74.76 17.16H72.84V19.08H74.76V17.16Z" fill="#F9F9F9"/>
<path d="M78.6 17.16H76.68V19.08H78.6V17.16Z" fill="#F9F9F9"/>
<path d="M82.44 17.16H80.52V19.08H82.44V17.16Z" fill="#F9F9F9"/>
<path d="M88.2 17.16H86.28V19.08H88.2V17.16Z" fill="#F9F9F9"/>
<path d="M7.56 19.08H5.64V21H7.56V19.08Z" fill="#F9F9F9"/>
<path d="M9.48 19.08H7.56V21H9.48V19.08Z" fill="#F9F9F9"/>
<path d="M17.16 19.08H15.24V21H17.16V19.08Z" fill="#F9F9F9"/>
<path d="M19.08 19.08H17.16V21H19.08V19.08Z" fill="#F9F9F9"/>
<path d="M22.92 19.08H21V21H22.92V19.08Z" fill="#F9F9F9"/>
<path d="M28.68 19.08H26.76V21H28.68V19.08Z" fill="#F9F9F9"/>
<path d="M32.52 19.08H30.6V21H32.52V19.08Z" fill="#F9F9F9"/>
<path d="M34.44 19.08H32.52V21H34.44V19.08Z" fill="#F9F9F9"/>
<path d="M40.2 19.08H38.28V21H40.2V19.08Z" fill="#F9F9F9"/>
<path d="M45.96 19.08H44.04V21H45.96V19.08Z" fill="#F9F9F9"/>
<path d="M47.88 19.08H45.96V21H47.88V19.08Z" fill="#F9F9F9"/>
<path d="M51.72 19.08H49.8V21H51.72V19.08Z" fill="#F9F9F9"/>
<path d="M55.56 19.08H53.64V21H55.56V19.08Z" fill="#F9F9F9"/>
<path d="M57.48 19.08H55.56V21H57.48V19.08Z" fill="#F9F9F9"/>
<path d="M61.32 19.08H59.4V21H61.32V19.08Z" fill="#F9F9F9"/>
<path d="M63.24 19.08H61.32V21H63.24V19.08Z" fill="#F9F9F9"/>
<path d="M67.08 19.08H65.16V21H67.08V19.08Z" fill="#F9F9F9"/>
<path d="M70.92 19.08H69V21H70.92V19.08Z" fill="#F9F9F9"/>
<path d="M72.84 19.08H70.92V21H72.84V19.08Z" fill="#F9F9F9"/>
<path d="M74.76 19.08H72.84V21H74.76V19.08Z" fill="#F9F9F9"/>
<path d="M76.68 19.08H74.76V21H76.68V19.08Z" fill="#F9F9F9"/>
<path d="M78.6 19.08H76.68V21H78.6V19.08Z" fill="#F9F9F9"/>
<path d="M82.44 19.08H80.52V21H82.44V19.08Z" fill="#F9F9F9"/>
<path d="M88.2 19.08H86.28V21H88.2V19.08Z" fill="#F9F9F9"/>
<path d="M3.72 21H1.8V22.92H3.72V21Z" fill="#F9F9F9"/>
<path d="M9.48 21H7.56V22.92H9.48V21Z" fill="#F9F9F9"/>
<path d="M11.4 21H9.48V22.92H11.4V21Z" fill="#F9F9F9"/>
<path d="M13.32 21H11.4V22.92H13.32V21Z" fill="#F9F9F9"/>
<path d="M15.24 21H13.32V22.92H15.24V21Z" fill="#F9F9F9"/>
<path d="M19.08 21H17.16V22.92H19.08V21Z" fill="#F9F9F9"/>
<path d="M32.52 21H30.6V22.92H32.52V21Z" fill="#F9F9F9"/>
<path d="M34.44 21H32.52V22.92H34.44V21Z" fill="#F9F9F9"/>
<path d="M36.36 21H34.44V22.92H36.36V21Z" fill="#F9F9F9"/>
<path d="M38.28 21H36.36V22.92H38.28V21Z" fill="#F9F9F9"/>
<path d="M40.2 21H38.28V22.92H40.2V21Z" fill="#F9F9F9"/>
<path d="M42.12 21H40.2V22.92H42.12V21Z" fill="#F9F9F9"/>
<path d="M44.04 21H42.12V22.92H44.04V21Z" fill="#F9F9F9"/>
<path d="M45.96 21H44.04V22.92H45.96V21Z" fill="#F9F9F9"/>
<path d="M49.8 21H47.88V22.92H49.8V21Z" fill="#F9F9F9"/>
<path d="M53.64 21H51.72V22.92H53.64V21Z" fill="#F9F9F9"/>
<path d="M55.56 21H53.64V22.92H55.56V21Z" fill="#F9F9F9"/>
<path d="M57.48 21H55.56V22.92H57.48V21Z" fill="#F9F9F9"/>
<path d="M65.16 21H63.24V22.92H65.16V21Z" fill="#F9F9F9"/>
<path d="M67.08 21H65.16V22.92H67.08V21Z" fill="#F9F9F9"/>
<path d="M69 21H67.08V22.92H69V21Z" fill="#F9F9F9"/>
<path d="M70.92 21H69V22.92H70.92V21Z" fill="#F9F9F9"/>
<path d="M72.84 21H70.92V22.92H72.84V21Z" fill="#F9F9F9"/>
<path d="M74.76 21H72.84V22.92H74.76V21Z" fill="#F9F9F9"/>
<path d="M82.44 21H80.52V22.92H82.44V21Z" fill="#F9F9F9"/>
<path d="M86.28 21H84.36V22.92H86.28V21Z" fill="#F9F9F9"/>
<path d="M5.64 22.92H3.72V24.84H5.64V22.92Z" fill="#F9F9F9"/>
<path d="M7.56 22.92H5.64V24.84H7.56V22.92Z" fill="#F9F9F9"/>
<path d="M11.4 22.92H9.48V24.84H11.4V22.92Z" fill="#F9F9F9"/>
<path d="M13.32 22.92H11.4V24.84H13.32V22.92Z" fill="#F9F9F9"/>
<path d="M19.08 22.92H17.16V24.84H19.08V22.92Z" fill="#F9F9F9"/>
<path d="M22.92 22.92H21V24.84H22.92V22.92Z" fill="#F9F9F9"/>
<path d="M24.84 22.92H22.92V24.84H24.84V22.92Z" fill="#F9F9F9"/>
<path d="M26.76 22.92H24.84V24.84H26.76V22.92Z" fill="#F9F9F9"/>
<path d="M28.68 22.92H26.76V24.84H28.68V22.92Z" fill="#F9F9F9"/>
<path d="M32.52 22.92H30.6V24.84H32.52V22.92Z" fill="#F9F9F9"/>
<path d="M34.44 22.92H32.52V24.84H34.44V22.92Z" fill="#F9F9F9"/>
<path d="M42.12 22.92H40.2V24.84H42.12V22.92Z" fill="#F9F9F9"/>
<path d="M45.96 22.92H44.04V24.84H45.96V22.92Z" fill="#F9F9F9"/>
<path d="M49.8 22.92H47.88V24.84H49.8V22.92Z" fill="#F9F9F9"/>
<path d="M53.64 22.92H51.72V24.84H53.64V22.92Z" fill="#F9F9F9"/>
<path d="M57.48 22.92H55.56V24.84H57.48V22.92Z" fill="#F9F9F9"/>
<path d="M59.4 22.92H57.48V24.84H59.4V22.92Z" fill="#F9F9F9"/>
<path d="M61.32 22.92H59.4V24.84H61.32V22.92Z" fill="#F9F9F9"/>
<path d="M63.24 22.92H61.32V24.84H63.24V22.92Z" fill="#F9F9F9"/>
<path d="M69 22.92H67.08V24.84H69V22.92Z" fill="#F9F9F9"/>
<path d="M76.68 22.92H74.76V24.84H76.68V22.92Z" fill="#F9F9F9"/>
<path d="M80.52 22.92H78.6V24.84H80.52V22.92Z" fill="#F9F9F9"/>
<path d="M86.28 22.92H84.36V24.84H86.28V22.92Z" fill="#F9F9F9"/>
<path d="M7.56 24.84H5.64V26.76H7.56V24.84Z" fill="#F9F9F9"/>
<path d="M11.4 24.84H9.48V26.76H11.4V24.84Z" fill="#F9F9F9"/>
<path d="M15.24 24.84H13.32V26.76H15.24V24.84Z" fill="#F9F9F9"/>
<path d="M17.16 24.84H15.24V26.76H17.16V24.84Z" fill="#F9F9F9"/>
<path d="M19.08 24.84H17.16V26.76H19.08V24.84Z" fill="#F9F9F9"/>
<path d="M22.92 24.84H21V26.76H22.92V24.84Z" fill="#F9F9F9"/>
<path d="M24.84 24.84H22.92V26.76H24.84V24.84Z" fill="#F9F9F9"/>
<path d="M26.76 24.84H24.84V26.76H26.76V24.84Z" fill="#F9F9F9"/>
<path d="M34.44 24.84H32.52V26.76H34.44V24.84Z" fill="#F9F9F9"/>
<path d="M40.2 24.84H38.28V26.76H40.2V24.84Z" fill="#F9F9F9"/>
<path d="M44.04 24.84H42.12V26.76H44.04V24.84Z" fill="#F9F9F9"/>
<path d="M45.96 24.84H44.04V26.76H45.96V24.84Z" fill="#F9F9F9"/>
<path d="M49.8 24.84H47.88V26.76H49.8V24.84Z" fill="#F9F9F9"/>
<path d="M51.72 24.84H49.8V26.76H51.72V24.84Z" fill="#F9F9F9"/>
<path d="M57.48 24.84H55.56V26.76H57.48V24.84Z" fill="#F9F9F9"/>
<path d="M67.08 24.84H65.16V26.76H67.08V24.84Z" fill="#F9F9F9"/>
<path d="M69 24.84H67.08V26.76H69V24.84Z" fill="#F9F9F9"/>
<path d="M76.68 24.84H74.76V26.76H76.68V24.84Z" fill="#F9F9F9"/>
<path d="M88.2 24.84H86.28V26.76H88.2V24.84Z" fill="#F9F9F9"/>
<path d="M3.72 26.76H1.8V28.68H3.72V26.76Z" fill="#F9F9F9"/>
<path d="M13.32 26.76H11.4V28.68H13.32V26.76Z" fill="#F9F9F9"/>
<path d="M17.16 26.76H15.24V28.68H17.16V26.76Z" fill="#F9F9F9"/>
<path d="M22.92 26.76H21V28.68H22.92V26.76Z" fill="#F9F9F9"/>
<path d="M36.36 26.76H34.44V28.68H36.36V26.76Z" fill="#F9F9F9"/>
<path d="M40.2 26.76H38.28V28.68H40.2V26.76Z" fill="#F9F9F9"/>
<path d="M42.12 26.76H40.2V28.68H42.12V26.76Z" fill="#F9F9F9"/>
<path d="M45.96 26.76H44.04V28.68H45.96V26.76Z" fill="#F9F9F9"/>
<path d="M47.88 26.76H45.96V28.68H47.88V26.76Z" fill="#F9F9F9"/>
<path d="M55.56 26.76H53.64V28.68H55.56V26.76Z" fill="#F9F9F9"/>
<path d="M59.4 26.76H57.48V28.68H59.4V26.76Z" fill="#F9F9F9"/>
<path d="M61.32 26.76H59.4V28.68H61.32V26.76Z" fill="#F9F9F9"/>
<path d="M63.24 26.76H61.32V28.68H63.24V26.76Z" fill="#F9F9F9"/>
<path d="M67.08 26.76H65.16V28.68H67.08V26.76Z" fill="#F9F9F9"/>
<path d="M70.92 26.76H69V28.68H70.92V26.76Z" fill="#F9F9F9"/>
<path d="M72.84 26.76H70.92V28.68H72.84V26.76Z" fill="#F9F9F9"/>
<path d="M74.76 26.76H72.84V28.68H74.76V26.76Z" fill="#F9F9F9"/>
<path d="M82.44 26.76H80.52V28.68H82.44V26.76Z" fill="#F9F9F9"/>
<path d="M84.36 26.76H82.44V28.68H84.36V26.76Z" fill="#F9F9F9"/>
<path d="M5.64 28.68H3.72V30.6H5.64V28.68Z" fill="#F9F9F9"/>
<path d="M7.56 28.68H5.64V30.6H7.56V28.68Z" fill="#F9F9F9"/>
<path d="M15.24 28.68H13.32V30.6H15.24V28.68Z" fill="#F9F9F9"/>
<path d="M19.08 28.68H17.16V30.6H19.08V28.68Z" fill="#F9F9F9"/>
<path d="M22.92 28.68H21V30.6H22.92V28.68Z" fill="#F9F9F9"/>
<path d="M24.84 28.68H22.92V30.6H24.84V28.68Z" fill="#F9F9F9"/>
<path d="M34.44 28.68H32.52V30.6H34.44V28.68Z" fill="#F9F9F9"/>
<path d="M36.36 28.68H34.44V30.6H36.36V28.68Z" fill="#F9F9F9"/>
<path d="M45.96 28.68H44.04V30.6H45.96V28.68Z" fill="#F9F9F9"/>
<path d="M53.64 28.68H51.72V30.6H53.64V28.68Z" fill="#F9F9F9"/>
<path d="M55.56 28.68H53.64V30.6H55.56V28.68Z" fill="#F9F9F9"/>
<path d="M57.48 28.68H55.56V30.6H57.48V28.68Z" fill="#F9F9F9"/>
<path d="M61.32 28.68H59.4V30.6H61.32V28.68Z" fill="#F9F9F9"/>
<path d="M63.24 28.68H61.32V30.6H63.24V28.68Z" fill="#F9F9F9"/>
<path d="M65.16 28.68H63.24V30.6H65.16V28.68Z" fill="#F9F9F9"/>
<path d="M67.08 28.68H65.16V30.6H67.08V28.68Z" fill="#F9F9F9"/>
<path d="M70.92 28.68H69V30.6H70.92V28.68Z" fill="#F9F9F9"/>
<path d="M74.76 28.68H72.84V30.6H74.76V28.68Z" fill="#F9F9F9"/>
<path d="M76.68 28.68H74.76V30.6H76.68V28.68Z" fill="#F9F9F9"/>
<path d="M80.52 28.68H78.6V30.6H80.52V28.68Z" fill="#F9F9F9"/>
<path d="M82.44 28.68H80.52V30.6H82.44V28.68Z" fill="#F9F9F9"/>
<path d="M86.28 28.68H84.36V30.6H86.28V28.68Z" fill="#F9F9F9"/>
<path d="M88.2 28.68H86.28V30.6H88.2V28.68Z" fill="#F9F9F9"/>
<path d="M5.64 30.6H3.72V32.52H5.64V30.6Z" fill="#F9F9F9"/>
<path d="M7.56 30.6H5.64V32.52H7.56V30.6Z" fill="#F9F9F9"/>
<path d="M11.4 30.6H9.48V32.52H11.4V30.6Z" fill="#F9F9F9"/>
<path d="M17.16 30.6H15.24V32.52H17.16V30.6Z" fill="#F9F9F9"/>
<path d="M22.92 30.6H21V32.52H22.92V30.6Z" fill="#F9F9F9"/>
<path d="M24.84 30.6H22.92V32.52H24.84V30.6Z" fill="#F9F9F9"/>
<path d="M26.76 30.6H24.84V32.52H26.76V30.6Z" fill="#F9F9F9"/>
<path d="M28.68 30.6H26.76V32.52H28.68V30.6Z" fill="#F9F9F9"/>
<path d="M30.6 30.6H28.68V32.52H30.6V30.6Z" fill="#F9F9F9"/>
<path d="M32.52 30.6H30.6V32.52H32.52V30.6Z" fill="#F9F9F9"/>
<path d="M44.04 30.6H42.12V32.52H44.04V30.6Z" fill="#F9F9F9"/>
<path d="M57.48 30.6H55.56V32.52H57.48V30.6Z" fill="#F9F9F9"/>
<path d="M59.4 30.6H57.48V32.52H59.4V30.6Z" fill="#F9F9F9"/>
<path d="M63.24 30.6H61.32V32.52H63.24V30.6Z" fill="#F9F9F9"/>
<path d="M67.08 30.6H65.16V32.52H67.08V30.6Z" fill="#F9F9F9"/>
<path d="M69 30.6H67.08V32.52H69V30.6Z" fill="#F9F9F9"/>
<path d="M70.92 30.6H69V32.52H70.92V30.6Z" fill="#F9F9F9"/>
<path d="M74.76 30.6H72.84V32.52H74.76V30.6Z" fill="#F9F9F9"/>
<path d="M76.68 30.6H74.76V32.52H76.68V30.6Z" fill="#F9F9F9"/>
<path d="M78.6 30.6H76.68V32.52H78.6V30.6Z" fill="#F9F9F9"/>
<path d="M80.52 30.6H78.6V32.52H80.52V30.6Z" fill="#F9F9F9"/>
<path d="M86.28 30.6H84.36V32.52H86.28V30.6Z" fill="#F9F9F9"/>
<path d="M88.2 30.6H86.28V32.52H88.2V30.6Z" fill="#F9F9F9"/>
<path d="M5.64 32.52H3.72V34.44H5.64V32.52Z" fill="#F9F9F9"/>
<path d="M9.48 32.52H7.56V34.44H9.48V32.52Z" fill="#F9F9F9"/>
<path d="M11.4 32.52H9.48V34.44H11.4V32.52Z" fill="#F9F9F9"/>
<path d="M13.32 32.52H11.4V34.44H13.32V32.52Z" fill="#F9F9F9"/>
<path d="M15.24 32.52H13.32V34.44H15.24V32.52Z" fill="#F9F9F9"/>
<path d="M26.76 32.52H24.84V34.44H26.76V32.52Z" fill="#F9F9F9"/>
<path d="M28.68 32.52H26.76V34.44H28.68V32.52Z" fill="#F9F9F9"/>
<path d="M32.52 32.52H30.6V34.44H32.52V32.52Z" fill="#F9F9F9"/>
<path d="M34.44 32.52H32.52V34.44H34.44V32.52Z" fill="#F9F9F9"/>
<path d="M36.36 32.52H34.44V34.44H36.36V32.52Z" fill="#F9F9F9"/>
<path d="M38.28 32.52H36.36V34.44H38.28V32.52Z" fill="#F9F9F9"/>
<path d="M40.2 32.52H38.28V34.44H40.2V32.52Z" fill="#F9F9F9"/>
<path d="M42.12 32.52H40.2V34.44H42.12V32.52Z" fill="#F9F9F9"/>
<path d="M45.96 32.52H44.04V34.44H45.96V32.52Z" fill="#F9F9F9"/>
<path d="M51.72 32.52H49.8V34.44H51.72V32.52Z" fill="#F9F9F9"/>
<path d="M57.48 32.52H55.56V34.44H57.48V32.52Z" fill="#F9F9F9"/>
<path d="M59.4 32.52H57.48V34.44H59.4V32.52Z" fill="#F9F9F9"/>
<path d="M63.24 32.52H61.32V34.44H63.24V32.52Z" fill="#F9F9F9"/>
<path d="M65.16 32.52H63.24V34.44H65.16V32.52Z" fill="#F9F9F9"/>
<path d="M69 32.52H67.08V34.44H69V32.52Z" fill="#F9F9F9"/>
<path d="M76.68 32.52H74.76V34.44H76.68V32.52Z" fill="#F9F9F9"/>
<path d="M80.52 32.52H78.6V34.44H80.52V32.52Z" fill="#F9F9F9"/>
<path d="M82.44 32.52H80.52V34.44H82.44V32.52Z" fill="#F9F9F9"/>
<path d="M86.28 32.52H84.36V34.44H86.28V32.52Z" fill="#F9F9F9"/>
<path d="M5.64 34.44H3.72V36.36H5.64V34.44Z" fill="#F9F9F9"/>
<path d="M7.56 34.44H5.64V36.36H7.56V34.44Z" fill="#F9F9F9"/>
<path d="M9.48 34.44H7.56V36.36H9.48V34.44Z" fill="#F9F9F9"/>
<path d="M19.08 34.44H17.16V36.36H19.08V34.44Z" fill="#F9F9F9"/>
<path d="M24.84 34.44H22.92V36.36H24.84V34.44Z" fill="#F9F9F9"/>
<path d="M26.76 34.44H24.84V36.36H26.76V34.44Z" fill="#F9F9F9"/>
<path d="M28.68 34.44H26.76V36.36H28.68V34.44Z" fill="#F9F9F9"/>
<path d="M38.28 34.44H36.36V36.36H38.28V34.44Z" fill="#F9F9F9"/>
<path d="M44.04 34.44H42.12V36.36H44.04V34.44Z" fill="#F9F9F9"/>
<path d="M45.96 34.44H44.04V36.36H45.96V34.44Z" fill="#F9F9F9"/>
<path d="M49.8 34.44H47.88V36.36H49.8V34.44Z" fill="#F9F9F9"/>
<path d="M51.72 34.44H49.8V36.36H51.72V34.44Z" fill="#F9F9F9"/>
<path d="M69 34.44H67.08V36.36H69V34.44Z" fill="#F9F9F9"/>
<path d="M76.68 34.44H74.76V36.36H76.68V34.44Z" fill="#F9F9F9"/>
<path d="M80.52 34.44H78.6V36.36H80.52V34.44Z" fill="#F9F9F9"/>
<path d="M86.28 34.44H84.36V36.36H86.28V34.44Z" fill="#F9F9F9"/>
<path d="M88.2 34.44H86.28V36.36H88.2V34.44Z" fill="#F9F9F9"/>
<path d="M15.24 36.36H13.32V38.28H15.24V36.36Z" fill="#F9F9F9"/>
<path d="M19.08 36.36H17.16V38.28H19.08V36.36Z" fill="#F9F9F9"/>
<path d="M22.92 36.36H21V38.28H22.92V36.36Z" fill="#F9F9F9"/>
<path d="M24.84 36.36H22.92V38.28H24.84V36.36Z" fill="#F9F9F9"/>
<path d="M26.76 36.36H24.84V38.28H26.76V36.36Z" fill="#F9F9F9"/>
<path d="M34.44 36.36H32.52V38.28H34.44V36.36Z" fill="#F9F9F9"/>
<path d="M36.36 36.36H34.44V38.28H36.36V36.36Z" fill="#F9F9F9"/>
<path d="M38.28 36.36H36.36V38.28H38.28V36.36Z" fill="#F9F9F9"/>
<path d="M42.12 36.36H40.2V38.28H42.12V36.36Z" fill="#F9F9F9"/>
<path d="M47.88 36.36H45.96V38.28H47.88V36.36Z" fill="#F9F9F9"/>
<path d="M53.64 36.36H51.72V38.28H53.64V36.36Z" fill="#F9F9F9"/>
<path d="M55.56 36.36H53.64V38.28H55.56V36.36Z" fill="#F9F9F9"/>
<path d="M57.48 36.36H55.56V38.28H57.48V36.36Z" fill="#F9F9F9"/>
<path d="M63.24 36.36H61.32V38.28H63.24V36.36Z" fill="#F9F9F9"/>
<path d="M72.84 36.36H70.92V38.28H72.84V36.36Z" fill="#F9F9F9"/>
<path d="M74.76 36.36H72.84V38.28H74.76V36.36Z" fill="#F9F9F9"/>
<path d="M82.44 36.36H80.52V38.28H82.44V36.36Z" fill="#F9F9F9"/>
<path d="M84.36 36.36H82.44V38.28H84.36V36.36Z" fill="#F9F9F9"/>
<path d="M86.28 36.36H84.36V38.28H86.28V36.36Z" fill="#F9F9F9"/>
<path d="M5.64 38.28H3.72V40.2H5.64V38.28Z" fill="#F9F9F9"/>
<path d="M7.56 38.28H5.64V40.2H7.56V38.28Z" fill="#F9F9F9"/>
<path d="M13.32 38.28H11.4V40.2H13.32V38.28Z" fill="#F9F9F9"/>
<path d="M17.16 38.28H15.24V40.2H17.16V38.28Z" fill="#F9F9F9"/>
<path d="M19.08 38.28H17.16V40.2H19.08V38.28Z" fill="#F9F9F9"/>
<path d="M21 38.28H19.08V40.2H21V38.28Z" fill="#F9F9F9"/>
<path d="M22.92 38.28H21V40.2H22.92V38.28Z" fill="#F9F9F9"/>
<path d="M28.68 38.28H26.76V40.2H28.68V38.28Z" fill="#F9F9F9"/>
<path d="M30.6 38.28H28.68V40.2H30.6V38.28Z" fill="#F9F9F9"/>
<path d="M32.52 38.28H30.6V40.2H32.52V38.28Z" fill="#F9F9F9"/>
<path d="M34.44 38.28H32.52V40.2H34.44V38.28Z" fill="#F9F9F9"/>
<path d="M36.36 38.28H34.44V40.2H36.36V38.28Z" fill="#F9F9F9"/>
<path d="M40.2 38.28H38.28V40.2H40.2V38.28Z" fill="#F9F9F9"/>
<path d="M42.12 38.28H40.2V40.2H42.12V38.28Z" fill="#F9F9F9"/>
<path d="M45.96 38.28H44.04V40.2H45.96V38.28Z" fill="#F9F9F9"/>
<path d="M47.88 38.28H45.96V40.2H47.88V38.28Z" fill="#F9F9F9"/>
<path d="M49.8 38.28H47.88V40.2H49.8V38.28Z" fill="#F9F9F9"/>
<path d="M51.72 38.28H49.8V40.2H51.72V38.28Z" fill="#F9F9F9"/>
<path d="M59.4 38.28H57.48V40.2H59.4V38.28Z" fill="#F9F9F9"/>
<path d="M69 38.28H67.08V40.2H69V38.28Z" fill="#F9F9F9"/>
<path d="M70.92 38.28H69V40.2H70.92V38.28Z" fill="#F9F9F9"/>
<path d="M76.68 38.28H74.76V40.2H76.68V38.28Z" fill="#F9F9F9"/>
<path d="M80.52 38.28H78.6V40.2H80.52V38.28Z" fill="#F9F9F9"/>
<path d="M3.72 40.2H1.8V42.12H3.72V40.2Z" fill="#F9F9F9"/>
<path d="M11.4 40.2H9.48V42.12H11.4V40.2Z" fill="#F9F9F9"/>
<path d="M13.32 40.2H11.4V42.12H13.32V40.2Z" fill="#F9F9F9"/>
<path d="M15.24 40.2H13.32V42.12H15.24V40.2Z" fill="#F9F9F9"/>
<path d="M17.16 40.2H15.24V42.12H17.16V40.2Z" fill="#F9F9F9"/>
<path d="M19.08 40.2H17.16V42.12H19.08V40.2Z" fill="#F9F9F9"/>
<path d="M22.92 40.2H21V42.12H22.92V40.2Z" fill="#F9F9F9"/>
<path d="M28.68 40.2H26.76V42.12H28.68V40.2Z" fill="#F9F9F9"/>
<path d="M30.6 40.2H28.68V42.12H30.6V40.2Z" fill="#F9F9F9"/>
<path d="M34.44 40.2H32.52V42.12H34.44V40.2Z" fill="#F9F9F9"/>
<path d="M42.12 40.2H40.2V42.12H42.12V40.2Z" fill="#F9F9F9"/>
<path d="M44.04 40.2H42.12V42.12H44.04V40.2Z" fill="#F9F9F9"/>
<path d="M45.96 40.2H44.04V42.12H45.96V40.2Z" fill="#F9F9F9"/>
<path d="M47.88 40.2H45.96V42.12H47.88V40.2Z" fill="#F9F9F9"/>
<path d="M49.8 40.2H47.88V42.12H49.8V40.2Z" fill="#F9F9F9"/>
<path d="M51.72 40.2H49.8V42.12H51.72V40.2Z" fill="#F9F9F9"/>
<path d="M53.64 40.2H51.72V42.12H53.64V40.2Z" fill="#F9F9F9"/>
<path d="M55.56 40.2H53.64V42.12H55.56V40.2Z" fill="#F9F9F9"/>
<path d="M59.4 40.2H57.48V42.12H59.4V40.2Z" fill="#F9F9F9"/>
<path d="M65.16 40.2H63.24V42.12H65.16V40.2Z" fill="#F9F9F9"/>
<path d="M72.84 40.2H70.92V42.12H72.84V40.2Z" fill="#F9F9F9"/>
<path d="M74.76 40.2H72.84V42.12H74.76V40.2Z" fill="#F9F9F9"/>
<path d="M76.68 40.2H74.76V42.12H76.68V40.2Z" fill="#F9F9F9"/>
<path d="M78.6 40.2H76.68V42.12H78.6V40.2Z" fill="#F9F9F9"/>
<path d="M80.52 40.2H78.6V42.12H80.52V40.2Z" fill="#F9F9F9"/>
<path d="M82.44 40.2H80.52V42.12H82.44V40.2Z" fill="#F9F9F9"/>
<path d="M84.36 40.2H82.44V42.12H84.36V40.2Z" fill="#F9F9F9"/>
<path d="M86.28 40.2H84.36V42.12H86.28V40.2Z" fill="#F9F9F9"/>
<path d="M7.56 42.12H5.64V44.04H7.56V42.12Z" fill="#F9F9F9"/>
<path d="M11.4 42.12H9.48V44.04H11.4V42.12Z" fill="#F9F9F9"/>
<path d="M19.08 42.12H17.16V44.04H19.08V42.12Z" fill="#F9F9F9"/>
<path d="M24.84 42.12H22.92V44.04H24.84V42.12Z" fill="#F9F9F9"/>
<path d="M26.76 42.12H24.84V44.04H26.76V42.12Z" fill="#F9F9F9"/>
<path d="M28.68 42.12H26.76V44.04H28.68V42.12Z" fill="#F9F9F9"/>
<path d="M30.6 42.12H28.68V44.04H30.6V42.12Z" fill="#F9F9F9"/>
<path d="M32.52 42.12H30.6V44.04H32.52V42.12Z" fill="#F9F9F9"/>
<path d="M34.44 42.12H32.52V44.04H34.44V42.12Z" fill="#F9F9F9"/>
<path d="M42.12 42.12H40.2V44.04H42.12V42.12Z" fill="#F9F9F9"/>
<path d="M49.8 42.12H47.88V44.04H49.8V42.12Z" fill="#F9F9F9"/>
<path d="M51.72 42.12H49.8V44.04H51.72V42.12Z" fill="#F9F9F9"/>
<path d="M55.56 42.12H53.64V44.04H55.56V42.12Z" fill="#F9F9F9"/>
<path d="M57.48 42.12H55.56V44.04H57.48V42.12Z" fill="#F9F9F9"/>
<path d="M59.4 42.12H57.48V44.04H59.4V42.12Z" fill="#F9F9F9"/>
<path d="M67.08 42.12H65.16V44.04H67.08V42.12Z" fill="#F9F9F9"/>
<path d="M69 42.12H67.08V44.04H69V42.12Z" fill="#F9F9F9"/>
<path d="M70.92 42.12H69V44.04H70.92V42.12Z" fill="#F9F9F9"/>
<path d="M72.84 42.12H70.92V44.04H72.84V42.12Z" fill="#F9F9F9"/>
<path d="M80.52 42.12H78.6V44.04H80.52V42.12Z" fill="#F9F9F9"/>
<path d="M88.2 42.12H86.28V44.04H88.2V42.12Z" fill="#F9F9F9"/>
<path d="M3.72 44.04H1.8V45.96H3.72V44.04Z" fill="#F9F9F9"/>
<path d="M7.56 44.04H5.64V45.96H7.56V44.04Z" fill="#F9F9F9"/>
<path d="M9.48 44.04H7.56V45.96H9.48V44.04Z" fill="#F9F9F9"/>
<path d="M11.4 44.04H9.48V45.96H11.4V44.04Z" fill="#F9F9F9"/>
<path d="M15.24 44.04H13.32V45.96H15.24V44.04Z" fill="#F9F9F9"/>
<path d="M19.08 44.04H17.16V45.96H19.08V44.04Z" fill="#F9F9F9"/>
<path d="M28.68 44.04H26.76V45.96H28.68V44.04Z" fill="#F9F9F9"/>
<path d="M30.6 44.04H28.68V45.96H30.6V44.04Z" fill="#F9F9F9"/>
<path d="M36.36 44.04H34.44V45.96H36.36V44.04Z" fill="#F9F9F9"/>
<path d="M38.28 44.04H36.36V45.96H38.28V44.04Z" fill="#F9F9F9"/>
<path d="M40.2 44.04H38.28V45.96H40.2V44.04Z" fill="#F9F9F9"/>
<path d="M42.12 44.04H40.2V45.96H42.12V44.04Z" fill="#F9F9F9"/>
<path d="M45.96 44.04H44.04V45.96H45.96V44.04Z" fill="#F9F9F9"/>
<path d="M49.8 44.04H47.88V45.96H49.8V44.04Z" fill="#F9F9F9"/>
<path d="M53.64 44.04H51.72V45.96H53.64V44.04Z" fill="#F9F9F9"/>
<path d="M59.4 44.04H57.48V45.96H59.4V44.04Z" fill="#F9F9F9"/>
<path d="M61.32 44.04H59.4V45.96H61.32V44.04Z" fill="#F9F9F9"/>
<path d="M63.24 44.04H61.32V45.96H63.24V44.04Z" fill="#F9F9F9"/>
<path d="M65.16 44.04H63.24V45.96H65.16V44.04Z" fill="#F9F9F9"/>
<path d="M67.08 44.04H65.16V45.96H67.08V44.04Z" fill="#F9F9F9"/>
<path d="M69 44.04H67.08V45.96H69V44.04Z" fill="#F9F9F9"/>
<path d="M70.92 44.04H69V45.96H70.92V44.04Z" fill="#F9F9F9"/>
<path d="M72.84 44.04H70.92V45.96H72.84V44.04Z" fill="#F9F9F9"/>
<path d="M76.68 44.04H74.76V45.96H76.68V44.04Z" fill="#F9F9F9"/>
<path d="M80.52 44.04H78.6V45.96H80.52V44.04Z" fill="#F9F9F9"/>
<path d="M82.44 44.04H80.52V45.96H82.44V44.04Z" fill="#F9F9F9"/>
<path d="M84.36 44.04H82.44V45.96H84.36V44.04Z" fill="#F9F9F9"/>
<path d="M86.28 44.04H84.36V45.96H86.28V44.04Z" fill="#F9F9F9"/>
<path d="M88.2 44.04H86.28V45.96H88.2V44.04Z" fill="#F9F9F9"/>
<path d="M9.48 45.96H7.56V47.88H9.48V45.96Z" fill="#F9F9F9"/>
<path d="M11.4 45.96H9.48V47.88H11.4V45.96Z" fill="#F9F9F9"/>
<path d="M19.08 45.96H17.16V47.88H19.08V45.96Z" fill="#F9F9F9"/>
<path d="M21 45.96H19.08V47.88H21V45.96Z" fill="#F9F9F9"/>
<path d="M22.92 45.96H21V47.88H22.92V45.96Z" fill="#F9F9F9"/>
<path d="M26.76 45.96H24.84V47.88H26.76V45.96Z" fill="#F9F9F9"/>
<path d="M28.68 45.96H26.76V47.88H28.68V45.96Z" fill="#F9F9F9"/>
<path d="M34.44 45.96H32.52V47.88H34.44V45.96Z" fill="#F9F9F9"/>
<path d="M36.36 45.96H34.44V47.88H36.36V45.96Z" fill="#F9F9F9"/>
<path d="M38.28 45.96H36.36V47.88H38.28V45.96Z" fill="#F9F9F9"/>
<path d="M42.12 45.96H40.2V47.88H42.12V45.96Z" fill="#F9F9F9"/>
<path d="M49.8 45.96H47.88V47.88H49.8V45.96Z" fill="#F9F9F9"/>
<path d="M53.64 45.96H51.72V47.88H53.64V45.96Z" fill="#F9F9F9"/>
<path d="M59.4 45.96H57.48V47.88H59.4V45.96Z" fill="#F9F9F9"/>
<path d="M61.32 45.96H59.4V47.88H61.32V45.96Z" fill="#F9F9F9"/>
<path d="M63.24 45.96H61.32V47.88H63.24V45.96Z" fill="#F9F9F9"/>
<path d="M67.08 45.96H65.16V47.88H67.08V45.96Z" fill="#F9F9F9"/>
<path d="M72.84 45.96H70.92V47.88H72.84V45.96Z" fill="#F9F9F9"/>
<path d="M80.52 45.96H78.6V47.88H80.52V45.96Z" fill="#F9F9F9"/>
<path d="M86.28 45.96H84.36V47.88H86.28V45.96Z" fill="#F9F9F9"/>
<path d="M7.56 47.88H5.64V49.8H7.56V47.88Z" fill="#F9F9F9"/>
<path d="M9.48 47.88H7.56V49.8H9.48V47.88Z" fill="#F9F9F9"/>
<path d="M11.4 47.88H9.48V49.8H11.4V47.88Z" fill="#F9F9F9"/>
<path d="M13.32 47.88H11.4V49.8H13.32V47.88Z" fill="#F9F9F9"/>
<path d="M15.24 47.88H13.32V49.8H15.24V47.88Z" fill="#F9F9F9"/>
<path d="M17.16 47.88H15.24V49.8H17.16V47.88Z" fill="#F9F9F9"/>
<path d="M19.08 47.88H17.16V49.8H19.08V47.88Z" fill="#F9F9F9"/>
<path d="M24.84 47.88H22.92V49.8H24.84V47.88Z" fill="#F9F9F9"/>
<path d="M30.6 47.88H28.68V49.8H30.6V47.88Z" fill="#F9F9F9"/>
<path d="M34.44 47.88H32.52V49.8H34.44V47.88Z" fill="#F9F9F9"/>
<path d="M36.36 47.88H34.44V49.8H36.36V47.88Z" fill="#F9F9F9"/>
<path d="M38.28 47.88H36.36V49.8H38.28V47.88Z" fill="#F9F9F9"/>
<path d="M42.12 47.88H40.2V49.8H42.12V47.88Z" fill="#F9F9F9"/>
<path d="M44.04 47.88H42.12V49.8H44.04V47.88Z" fill="#F9F9F9"/>
<path d="M45.96 47.88H44.04V49.8H45.96V47.88Z" fill="#F9F9F9"/>
<path d="M47.88 47.88H45.96V49.8H47.88V47.88Z" fill="#F9F9F9"/>
<path d="M49.8 47.88H47.88V49.8H49.8V47.88Z" fill="#F9F9F9"/>
<path d="M61.32 47.88H59.4V49.8H61.32V47.88Z" fill="#F9F9F9"/>
<path d="M65.16 47.88H63.24V49.8H65.16V47.88Z" fill="#F9F9F9"/>
<path d="M72.84 47.88H70.92V49.8H72.84V47.88Z" fill="#F9F9F9"/>
<path d="M74.76 47.88H72.84V49.8H74.76V47.88Z" fill="#F9F9F9"/>
<path d="M76.68 47.88H74.76V49.8H76.68V47.88Z" fill="#F9F9F9"/>
<path d="M78.6 47.88H76.68V49.8H78.6V47.88Z" fill="#F9F9F9"/>
<path d="M80.52 47.88H78.6V49.8H80.52V47.88Z" fill="#F9F9F9"/>
<path d="M84.36 47.88H82.44V49.8H84.36V47.88Z" fill="#F9F9F9"/>
<path d="M86.28 47.88H84.36V49.8H86.28V47.88Z" fill="#F9F9F9"/>
<path d="M88.2 47.88H86.28V49.8H88.2V47.88Z" fill="#F9F9F9"/>
<path d="M11.4 49.8H9.48V51.72H11.4V49.8Z" fill="#F9F9F9"/>
<path d="M17.16 49.8H15.24V51.72H17.16V49.8Z" fill="#F9F9F9"/>
<path d="M19.08 49.8H17.16V51.72H19.08V49.8Z" fill="#F9F9F9"/>
<path d="M22.92 49.8H21V51.72H22.92V49.8Z" fill="#F9F9F9"/>
<path d="M28.68 49.8H26.76V51.72H28.68V49.8Z" fill="#F9F9F9"/>
<path d="M40.2 49.8H38.28V51.72H40.2V49.8Z" fill="#F9F9F9"/>
<path d="M44.04 49.8H42.12V51.72H44.04V49.8Z" fill="#F9F9F9"/>
<path d="M45.96 49.8H44.04V51.72H45.96V49.8Z" fill="#F9F9F9"/>
<path d="M49.8 49.8H47.88V51.72H49.8V49.8Z" fill="#F9F9F9"/>
<path d="M67.08 49.8H65.16V51.72H67.08V49.8Z" fill="#F9F9F9"/>
<path d="M74.76 49.8H72.84V51.72H74.76V49.8Z" fill="#F9F9F9"/>
<path d="M86.28 49.8H84.36V51.72H86.28V49.8Z" fill="#F9F9F9"/>
<path d="M3.72 51.72H1.8V53.64H3.72V51.72Z" fill="#F9F9F9"/>
<path d="M5.64 51.72H3.72V53.64H5.64V51.72Z" fill="#F9F9F9"/>
<path d="M9.48 51.72H7.56V53.64H9.48V51.72Z" fill="#F9F9F9"/>
<path d="M11.4 51.72H9.48V53.64H11.4V51.72Z" fill="#F9F9F9"/>
<path d="M15.24 51.72H13.32V53.64H15.24V51.72Z" fill="#F9F9F9"/>
<path d="M17.16 51.72H15.24V53.64H17.16V51.72Z" fill="#F9F9F9"/>
<path d="M19.08 51.72H17.16V53.64H19.08V51.72Z" fill="#F9F9F9"/>
<path d="M24.84 51.72H22.92V53.64H24.84V51.72Z" fill="#F9F9F9"/>
<path d="M26.76 51.72H24.84V53.64H26.76V51.72Z" fill="#F9F9F9"/>
<path d="M30.6 51.72H28.68V53.64H30.6V51.72Z" fill="#F9F9F9"/>
<path d="M34.44 51.72H32.52V53.64H34.44V51.72Z" fill="#F9F9F9"/>
<path d="M36.36 51.72H34.44V53.64H36.36V51.72Z" fill="#F9F9F9"/>
<path d="M38.28 51.72H36.36V53.64H38.28V51.72Z" fill="#F9F9F9"/>
<path d="M45.96 51.72H44.04V53.64H45.96V51.72Z" fill="#F9F9F9"/>
<path d="M49.8 51.72H47.88V53.64H49.8V51.72Z" fill="#F9F9F9"/>
<path d="M53.64 51.72H51.72V53.64H53.64V51.72Z" fill="#F9F9F9"/>
<path d="M57.48 51.72H55.56V53.64H57.48V51.72Z" fill="#F9F9F9"/>
<path d="M59.4 51.72H57.48V53.64H59.4V51.72Z" fill="#F9F9F9"/>
<path d="M65.16 51.72H63.24V53.64H65.16V51.72Z" fill="#F9F9F9"/>
<path d="M74.76 51.72H72.84V53.64H74.76V51.72Z" fill="#F9F9F9"/>
<path d="M78.6 51.72H76.68V53.64H78.6V51.72Z" fill="#F9F9F9"/>
<path d="M82.44 51.72H80.52V53.64H82.44V51.72Z" fill="#F9F9F9"/>
<path d="M86.28 51.72H84.36V53.64H86.28V51.72Z" fill="#F9F9F9"/>
<path d="M5.64 53.64H3.72V55.56H5.64V53.64Z" fill="#F9F9F9"/>
<path d="M7.56 53.64H5.64V55.56H7.56V53.64Z" fill="#F9F9F9"/>
<path d="M11.4 53.64H9.48V55.56H11.4V53.64Z" fill="#F9F9F9"/>
<path d="M17.16 53.64H15.24V55.56H17.16V53.64Z" fill="#F9F9F9"/>
<path d="M19.08 53.64H17.16V55.56H19.08V53.64Z" fill="#F9F9F9"/>
<path d="M30.6 53.64H28.68V55.56H30.6V53.64Z" fill="#F9F9F9"/>
<path d="M36.36 53.64H34.44V55.56H36.36V53.64Z" fill="#F9F9F9"/>
<path d="M38.28 53.64H36.36V55.56H38.28V53.64Z" fill="#F9F9F9"/>
<path d="M40.2 53.64H38.28V55.56H40.2V53.64Z" fill="#F9F9F9"/>
<path d="M44.04 53.64H42.12V55.56H44.04V53.64Z" fill="#F9F9F9"/>
<path d="M45.96 53.64H44.04V55.56H45.96V53.64Z" fill="#F9F9F9"/>
<path d="M47.88 53.64H45.96V55.56H47.88V53.64Z" fill="#F9F9F9"/>
<path d="M49.8 53.64H47.88V55.56H49.8V53.64Z" fill="#F9F9F9"/>
<path d="M51.72 53.64H49.8V55.56H51.72V53.64Z" fill="#F9F9F9"/>
<path d="M53.64 53.64H51.72V55.56H53.64V53.64Z" fill="#F9F9F9"/>
<path d="M63.24 53.64H61.32V55.56H63.24V53.64Z" fill="#F9F9F9"/>
<path d="M65.16 53.64H63.24V55.56H65.16V53.64Z" fill="#F9F9F9"/>
<path d="M69 53.64H67.08V55.56H69V53.64Z" fill="#F9F9F9"/>
<path d="M70.92 53.64H69V55.56H70.92V53.64Z" fill="#F9F9F9"/>
<path d="M72.84 53.64H70.92V55.56H72.84V53.64Z" fill="#F9F9F9"/>
<path d="M76.68 53.64H74.76V55.56H76.68V53.64Z" fill="#F9F9F9"/>
<path d="M78.6 53.64H76.68V55.56H78.6V53.64Z" fill="#F9F9F9"/>
<path d="M3.72 55.56H1.8V57.48H3.72V55.56Z" fill="#F9F9F9"/>
<path d="M5.64 55.56H3.72V57.48H5.64V55.56Z" fill="#F9F9F9"/>
<path d="M7.56 55.56H5.64V57.48H7.56V55.56Z" fill="#F9F9F9"/>
<path d="M11.4 55.56H9.48V57.48H11.4V55.56Z" fill="#F9F9F9"/>
<path d="M13.32 55.56H11.4V57.48H13.32V55.56Z" fill="#F9F9F9"/>
<path d="M15.24 55.56H13.32V57.48H15.24V55.56Z" fill="#F9F9F9"/>
<path d="M19.08 55.56H17.16V57.48H19.08V55.56Z" fill="#F9F9F9"/>
<path d="M21 55.56H19.08V57.48H21V55.56Z" fill="#F9F9F9"/>
<path d="M24.84 55.56H22.92V57.48H24.84V55.56Z" fill="#F9F9F9"/>
<path d="M26.76 55.56H24.84V57.48H26.76V55.56Z" fill="#F9F9F9"/>
<path d="M30.6 55.56H28.68V57.48H30.6V55.56Z" fill="#F9F9F9"/>
<path d="M32.52 55.56H30.6V57.48H32.52V55.56Z" fill="#F9F9F9"/>
<path d="M38.28 55.56H36.36V57.48H38.28V55.56Z" fill="#F9F9F9"/>
<path d="M42.12 55.56H40.2V57.48H42.12V55.56Z" fill="#F9F9F9"/>
<path d="M45.96 55.56H44.04V57.48H45.96V55.56Z" fill="#F9F9F9"/>
<path d="M47.88 55.56H45.96V57.48H47.88V55.56Z" fill="#F9F9F9"/>
<path d="M49.8 55.56H47.88V57.48H49.8V55.56Z" fill="#F9F9F9"/>
<path d="M55.56 55.56H53.64V57.48H55.56V55.56Z" fill="#F9F9F9"/>
<path d="M61.32 55.56H59.4V57.48H61.32V55.56Z" fill="#F9F9F9"/>
<path d="M63.24 55.56H61.32V57.48H63.24V55.56Z" fill="#F9F9F9"/>
<path d="M65.16 55.56H63.24V57.48H65.16V55.56Z" fill="#F9F9F9"/>
<path d="M72.84 55.56H70.92V57.48H72.84V55.56Z" fill="#F9F9F9"/>
<path d="M76.68 55.56H74.76V57.48H76.68V55.56Z" fill="#F9F9F9"/>
<path d="M78.6 55.56H76.68V57.48H78.6V55.56Z" fill="#F9F9F9"/>
<path d="M84.36 55.56H82.44V57.48H84.36V55.56Z" fill="#F9F9F9"/>
<path d="M88.2 55.56H86.28V57.48H88.2V55.56Z" fill="#F9F9F9"/>
<path d="M3.72 57.48H1.8V59.4H3.72V57.48Z" fill="#F9F9F9"/>
<path d="M5.64 57.48H3.72V59.4H5.64V57.48Z" fill="#F9F9F9"/>
<path d="M9.48 57.48H7.56V59.4H9.48V57.48Z" fill="#F9F9F9"/>
<path d="M11.4 57.48H9.48V59.4H11.4V57.48Z" fill="#F9F9F9"/>
<path d="M13.32 57.48H11.4V59.4H13.32V57.48Z" fill="#F9F9F9"/>
<path d="M24.84 57.48H22.92V59.4H24.84V57.48Z" fill="#F9F9F9"/>
<path d="M26.76 57.48H24.84V59.4H26.76V57.48Z" fill="#F9F9F9"/>
<path d="M28.68 57.48H26.76V59.4H28.68V57.48Z" fill="#F9F9F9"/>
<path d="M34.44 57.48H32.52V59.4H34.44V57.48Z" fill="#F9F9F9"/>
<path d="M36.36 57.48H34.44V59.4H36.36V57.48Z" fill="#F9F9F9"/>
<path d="M40.2 57.48H38.28V59.4H40.2V57.48Z" fill="#F9F9F9"/>
<path d="M42.12 57.48H40.2V59.4H42.12V57.48Z" fill="#F9F9F9"/>
<path d="M44.04 57.48H42.12V59.4H44.04V57.48Z" fill="#F9F9F9"/>
<path d="M45.96 57.48H44.04V59.4H45.96V57.48Z" fill="#F9F9F9"/>
<path d="M53.64 57.48H51.72V59.4H53.64V57.48Z" fill="#F9F9F9"/>
<path d="M55.56 57.48H53.64V59.4H55.56V57.48Z" fill="#F9F9F9"/>
<path d="M57.48 57.48H55.56V59.4H57.48V57.48Z" fill="#F9F9F9"/>
<path d="M59.4 57.48H57.48V59.4H59.4V57.48Z" fill="#F9F9F9"/>
<path d="M72.84 57.48H70.92V59.4H72.84V57.48Z" fill="#F9F9F9"/>
<path d="M76.68 57.48H74.76V59.4H76.68V57.48Z" fill="#F9F9F9"/>
<path d="M78.6 57.48H76.68V59.4H78.6V57.48Z" fill="#F9F9F9"/>
<path d="M86.28 57.48H84.36V59.4H86.28V57.48Z" fill="#F9F9F9"/>
<path d="M3.72 59.4H1.8V61.32H3.72V59.4Z" fill="#F9F9F9"/>
<path d="M5.64 59.4H3.72V61.32H5.64V59.4Z" fill="#F9F9F9"/>
<path d="M7.56 59.4H5.64V61.32H7.56V59.4Z" fill="#F9F9F9"/>
<path d="M11.4 59.4H9.48V61.32H11.4V59.4Z" fill="#F9F9F9"/>
<path d="M15.24 59.4H13.32V61.32H15.24V59.4Z" fill="#F9F9F9"/>
<path d="M19.08 59.4H17.16V61.32H19.08V59.4Z" fill="#F9F9F9"/>
<path d="M22.92 59.4H21V61.32H22.92V59.4Z" fill="#F9F9F9"/>
<path d="M26.76 59.4H24.84V61.32H26.76V59.4Z" fill="#F9F9F9"/>
<path d="M53.64 59.4H51.72V61.32H53.64V59.4Z" fill="#F9F9F9"/>
<path d="M61.32 59.4H59.4V61.32H61.32V59.4Z" fill="#F9F9F9"/>
<path d="M63.24 59.4H61.32V61.32H63.24V59.4Z" fill="#F9F9F9"/>
<path d="M65.16 59.4H63.24V61.32H65.16V59.4Z" fill="#F9F9F9"/>
<path d="M76.68 59.4H74.76V61.32H76.68V59.4Z" fill="#F9F9F9"/>
<path d="M88.2 59.4H86.28V61.32H88.2V59.4Z" fill="#F9F9F9"/>
<path d="M3.72 61.32H1.8V63.24H3.72V61.32Z" fill="#F9F9F9"/>
<path d="M9.48 61.32H7.56V63.24H9.48V61.32Z" fill="#F9F9F9"/>
<path d="M11.4 61.32H9.48V63.24H11.4V61.32Z" fill="#F9F9F9"/>
<path d="M21 61.32H19.08V63.24H21V61.32Z" fill="#F9F9F9"/>
<path d="M22.92 61.32H21V63.24H22.92V61.32Z" fill="#F9F9F9"/>
<path d="M24.84 61.32H22.92V63.24H24.84V61.32Z" fill="#F9F9F9"/>
<path d="M26.76 61.32H24.84V63.24H26.76V61.32Z" fill="#F9F9F9"/>
<path d="M28.68 61.32H26.76V63.24H28.68V61.32Z" fill="#F9F9F9"/>
<path d="M30.6 61.32H28.68V63.24H30.6V61.32Z" fill="#F9F9F9"/>
<path d="M32.52 61.32H30.6V63.24H32.52V61.32Z" fill="#F9F9F9"/>
<path d="M36.36 61.32H34.44V63.24H36.36V61.32Z" fill="#F9F9F9"/>
<path d="M38.28 61.32H36.36V63.24H38.28V61.32Z" fill="#F9F9F9"/>
<path d="M40.2 61.32H38.28V63.24H40.2V61.32Z" fill="#F9F9F9"/>
<path d="M53.64 61.32H51.72V63.24H53.64V61.32Z" fill="#F9F9F9"/>
<path d="M55.56 61.32H53.64V63.24H55.56V61.32Z" fill="#F9F9F9"/>
<path d="M59.4 61.32H57.48V63.24H59.4V61.32Z" fill="#F9F9F9"/>
<path d="M65.16 61.32H63.24V63.24H65.16V61.32Z" fill="#F9F9F9"/>
<path d="M67.08 61.32H65.16V63.24H67.08V61.32Z" fill="#F9F9F9"/>
<path d="M76.68 61.32H74.76V63.24H76.68V61.32Z" fill="#F9F9F9"/>
<path d="M78.6 61.32H76.68V63.24H78.6V61.32Z" fill="#F9F9F9"/>
<path d="M84.36 61.32H82.44V63.24H84.36V61.32Z" fill="#F9F9F9"/>
<path d="M86.28 61.32H84.36V63.24H86.28V61.32Z" fill="#F9F9F9"/>
<path d="M3.72 63.24H1.8V65.16H3.72V63.24Z" fill="#F9F9F9"/>
<path d="M5.64 63.24H3.72V65.16H5.64V63.24Z" fill="#F9F9F9"/>
<path d="M7.56 63.24H5.64V65.16H7.56V63.24Z" fill="#F9F9F9"/>
<path d="M11.4 63.24H9.48V65.16H11.4V63.24Z" fill="#F9F9F9"/>
<path d="M13.32 63.24H11.4V65.16H13.32V63.24Z" fill="#F9F9F9"/>
<path d="M15.24 63.24H13.32V65.16H15.24V63.24Z" fill="#F9F9F9"/>
<path d="M17.16 63.24H15.24V65.16H17.16V63.24Z" fill="#F9F9F9"/>
<path d="M22.92 63.24H21V65.16H22.92V63.24Z" fill="#F9F9F9"/>
<path d="M26.76 63.24H24.84V65.16H26.76V63.24Z" fill="#F9F9F9"/>
<path d="M28.68 63.24H26.76V65.16H28.68V63.24Z" fill="#F9F9F9"/>
<path d="M30.6 63.24H28.68V65.16H30.6V63.24Z" fill="#F9F9F9"/>
<path d="M32.52 63.24H30.6V65.16H32.52V63.24Z" fill="#F9F9F9"/>
<path d="M34.44 63.24H32.52V65.16H34.44V63.24Z" fill="#F9F9F9"/>
<path d="M38.28 63.24H36.36V65.16H38.28V63.24Z" fill="#F9F9F9"/>
<path d="M40.2 63.24H38.28V65.16H40.2V63.24Z" fill="#F9F9F9"/>
<path d="M49.8 63.24H47.88V65.16H49.8V63.24Z" fill="#F9F9F9"/>
<path d="M57.48 63.24H55.56V65.16H57.48V63.24Z" fill="#F9F9F9"/>
<path d="M59.4 63.24H57.48V65.16H59.4V63.24Z" fill="#F9F9F9"/>
<path d="M61.32 63.24H59.4V65.16H61.32V63.24Z" fill="#F9F9F9"/>
<path d="M63.24 63.24H61.32V65.16H63.24V63.24Z" fill="#F9F9F9"/>
<path d="M67.08 63.24H65.16V65.16H67.08V63.24Z" fill="#F9F9F9"/>
<path d="M72.84 63.24H70.92V65.16H72.84V63.24Z" fill="#F9F9F9"/>
<path d="M80.52 63.24H78.6V65.16H80.52V63.24Z" fill="#F9F9F9"/>
<path d="M82.44 63.24H80.52V65.16H82.44V63.24Z" fill="#F9F9F9"/>
<path d="M84.36 63.24H82.44V65.16H84.36V63.24Z" fill="#F9F9F9"/>
<path d="M86.28 63.24H84.36V65.16H86.28V63.24Z" fill="#F9F9F9"/>
<path d="M9.48 65.16H7.56V67.08H9.48V65.16Z" fill="#F9F9F9"/>
<path d="M11.4 65.16H9.48V67.08H11.4V65.16Z" fill="#F9F9F9"/>
<path d="M13.32 65.16H11.4V67.08H13.32V65.16Z" fill="#F9F9F9"/>
<path d="M19.08 65.16H17.16V67.08H19.08V65.16Z" fill="#F9F9F9"/>
<path d="M22.92 65.16H21V67.08H22.92V65.16Z" fill="#F9F9F9"/>
<path d="M24.84 65.16H22.92V67.08H24.84V65.16Z" fill="#F9F9F9"/>
<path d="M26.76 65.16H24.84V67.08H26.76V65.16Z" fill="#F9F9F9"/>
<path d="M30.6 65.16H28.68V67.08H30.6V65.16Z" fill="#F9F9F9"/>
<path d="M32.52 65.16H30.6V67.08H32.52V65.16Z" fill="#F9F9F9"/>
<path d="M42.12 65.16H40.2V67.08H42.12V65.16Z" fill="#F9F9F9"/>
<path d="M49.8 65.16H47.88V67.08H49.8V65.16Z" fill="#F9F9F9"/>
<path d="M53.64 65.16H51.72V67.08H53.64V65.16Z" fill="#F9F9F9"/>
<path d="M55.56 65.16H53.64V67.08H55.56V65.16Z" fill="#F9F9F9"/>
<path d="M57.48 65.16H55.56V67.08H57.48V65.16Z" fill="#F9F9F9"/>
<path d="M61.32 65.16H59.4V67.08H61.32V65.16Z" fill="#F9F9F9"/>
<path d="M67.08 65.16H65.16V67.08H67.08V65.16Z" fill="#F9F9F9"/>
<path d="M70.92 65.16H69V67.08H70.92V65.16Z" fill="#F9F9F9"/>
<path d="M72.84 65.16H70.92V67.08H72.84V65.16Z" fill="#F9F9F9"/>
<path d="M80.52 65.16H78.6V67.08H80.52V65.16Z" fill="#F9F9F9"/>
<path d="M82.44 65.16H80.52V67.08H82.44V65.16Z" fill="#F9F9F9"/>
<path d="M86.28 65.16H84.36V67.08H86.28V65.16Z" fill="#F9F9F9"/>
<path d="M11.4 67.08H9.48V69H11.4V67.08Z" fill="#F9F9F9"/>
<path d="M15.24 67.08H13.32V69H15.24V67.08Z" fill="#F9F9F9"/>
<path d="M17.16 67.08H15.24V69H17.16V67.08Z" fill="#F9F9F9"/>
<path d="M22.92 67.08H21V69H22.92V67.08Z" fill="#F9F9F9"/>
<path d="M28.68 67.08H26.76V69H28.68V67.08Z" fill="#F9F9F9"/>
<path d="M34.44 67.08H32.52V69H34.44V67.08Z" fill="#F9F9F9"/>
<path d="M38.28 67.08H36.36V69H38.28V67.08Z" fill="#F9F9F9"/>
<path d="M42.12 67.08H40.2V69H42.12V67.08Z" fill="#F9F9F9"/>
<path d="M45.96 67.08H44.04V69H45.96V67.08Z" fill="#F9F9F9"/>
<path d="M51.72 67.08H49.8V69H51.72V67.08Z" fill="#F9F9F9"/>
<path d="M55.56 67.08H53.64V69H55.56V67.08Z" fill="#F9F9F9"/>
<path d="M63.24 67.08H61.32V69H63.24V67.08Z" fill="#F9F9F9"/>
<path d="M69 67.08H67.08V69H69V67.08Z" fill="#F9F9F9"/>
<path d="M70.92 67.08H69V69H70.92V67.08Z" fill="#F9F9F9"/>
<path d="M72.84 67.08H70.92V69H72.84V67.08Z" fill="#F9F9F9"/>
<path d="M74.76 67.08H72.84V69H74.76V67.08Z" fill="#F9F9F9"/>
<path d="M80.52 67.08H78.6V69H80.52V67.08Z" fill="#F9F9F9"/>
<path d="M86.28 67.08H84.36V69H86.28V67.08Z" fill="#F9F9F9"/>
<path d="M5.64 69H3.72V70.92H5.64V69Z" fill="#F9F9F9"/>
<path d="M7.56 69H5.64V70.92H7.56V69Z" fill="#F9F9F9"/>
<path d="M9.48 69H7.56V70.92H9.48V69Z" fill="#F9F9F9"/>
<path d="M11.4 69H9.48V70.92H11.4V69Z" fill="#F9F9F9"/>
<path d="M19.08 69H17.16V70.92H19.08V69Z" fill="#F9F9F9"/>
<path d="M22.92 69H21V70.92H22.92V69Z" fill="#F9F9F9"/>
<path d="M24.84 69H22.92V70.92H24.84V69Z" fill="#F9F9F9"/>
<path d="M30.6 69H28.68V70.92H30.6V69Z" fill="#F9F9F9"/>
<path d="M34.44 69H32.52V70.92H34.44V69Z" fill="#F9F9F9"/>
<path d="M36.36 69H34.44V70.92H36.36V69Z" fill="#F9F9F9"/>
<path d="M38.28 69H36.36V70.92H38.28V69Z" fill="#F9F9F9"/>
<path d="M42.12 69H40.2V70.92H42.12V69Z" fill="#F9F9F9"/>
<path d="M45.96 69H44.04V70.92H45.96V69Z" fill="#F9F9F9"/>
<path d="M51.72 69H49.8V70.92H51.72V69Z" fill="#F9F9F9"/>
<path d="M53.64 69H51.72V70.92H53.64V69Z" fill="#F9F9F9"/>
<path d="M65.16 69H63.24V70.92H65.16V69Z" fill="#F9F9F9"/>
<path d="M69 69H67.08V70.92H69V69Z" fill="#F9F9F9"/>
<path d="M70.92 69H69V70.92H70.92V69Z" fill="#F9F9F9"/>
<path d="M80.52 69H78.6V70.92H80.52V69Z" fill="#F9F9F9"/>
<path d="M84.36 69H82.44V70.92H84.36V69Z" fill="#F9F9F9"/>
<path d="M3.72 70.92H1.8V72.84H3.72V70.92Z" fill="#F9F9F9"/>
<path d="M9.48 70.92H7.56V72.84H9.48V70.92Z" fill="#F9F9F9"/>
<path d="M11.4 70.92H9.48V72.84H11.4V70.92Z" fill="#F9F9F9"/>
<path d="M15.24 70.92H13.32V72.84H15.24V70.92Z" fill="#F9F9F9"/>
<path d="M19.08 70.92H17.16V72.84H19.08V70.92Z" fill="#F9F9F9"/>
<path d="M22.92 70.92H21V72.84H22.92V70.92Z" fill="#F9F9F9"/>
<path d="M26.76 70.92H24.84V72.84H26.76V70.92Z" fill="#F9F9F9"/>
<path d="M30.6 70.92H28.68V72.84H30.6V70.92Z" fill="#F9F9F9"/>
<path d="M40.2 70.92H38.28V72.84H40.2V70.92Z" fill="#F9F9F9"/>
<path d="M42.12 70.92H40.2V72.84H42.12V70.92Z" fill="#F9F9F9"/>
<path d="M44.04 70.92H42.12V72.84H44.04V70.92Z" fill="#F9F9F9"/>
<path d="M45.96 70.92H44.04V72.84H45.96V70.92Z" fill="#F9F9F9"/>
<path d="M47.88 70.92H45.96V72.84H47.88V70.92Z" fill="#F9F9F9"/>
<path d="M49.8 70.92H47.88V72.84H49.8V70.92Z" fill="#F9F9F9"/>
<path d="M51.72 70.92H49.8V72.84H51.72V70.92Z" fill="#F9F9F9"/>
<path d="M53.64 70.92H51.72V72.84H53.64V70.92Z" fill="#F9F9F9"/>
<path d="M57.48 70.92H55.56V72.84H57.48V70.92Z" fill="#F9F9F9"/>
<path d="M69 70.92H67.08V72.84H69V70.92Z" fill="#F9F9F9"/>
<path d="M72.84 70.92H70.92V72.84H72.84V70.92Z" fill="#F9F9F9"/>
<path d="M74.76 70.92H72.84V72.84H74.76V70.92Z" fill="#F9F9F9"/>
<path d="M76.68 70.92H74.76V72.84H76.68V70.92Z" fill="#F9F9F9"/>
<path d="M78.6 70.92H76.68V72.84H78.6V70.92Z" fill="#F9F9F9"/>
<path d="M80.52 70.92H78.6V72.84H80.52V70.92Z" fill="#F9F9F9"/>
<path d="M82.44 70.92H80.52V72.84H82.44V70.92Z" fill="#F9F9F9"/>
<path d="M84.36 70.92H82.44V72.84H84.36V70.92Z" fill="#F9F9F9"/>
<path d="M86.28 70.92H84.36V72.84H86.28V70.92Z" fill="#F9F9F9"/>
<path d="M19.08 72.84H17.16V74.76H19.08V72.84Z" fill="#F9F9F9"/>
<path d="M21 72.84H19.08V74.76H21V72.84Z" fill="#F9F9F9"/>
<path d="M24.84 72.84H22.92V74.76H24.84V72.84Z" fill="#F9F9F9"/>
<path d="M26.76 72.84H24.84V74.76H26.76V72.84Z" fill="#F9F9F9"/>
<path d="M28.68 72.84H26.76V74.76H28.68V72.84Z" fill="#F9F9F9"/>
<path d="M40.2 72.84H38.28V74.76H40.2V72.84Z" fill="#F9F9F9"/>
<path d="M42.12 72.84H40.2V74.76H42.12V72.84Z" fill="#F9F9F9"/>
<path d="M49.8 72.84H47.88V74.76H49.8V72.84Z" fill="#F9F9F9"/>
<path d="M53.64 72.84H51.72V74.76H53.64V72.84Z" fill="#F9F9F9"/>
<path d="M55.56 72.84H53.64V74.76H55.56V72.84Z" fill="#F9F9F9"/>
<path d="M57.48 72.84H55.56V74.76H57.48V72.84Z" fill="#F9F9F9"/>
<path d="M59.4 72.84H57.48V74.76H59.4V72.84Z" fill="#F9F9F9"/>
<path d="M70.92 72.84H69V74.76H70.92V72.84Z" fill="#F9F9F9"/>
<path d="M72.84 72.84H70.92V74.76H72.84V72.84Z" fill="#F9F9F9"/>
<path d="M80.52 72.84H78.6V74.76H80.52V72.84Z" fill="#F9F9F9"/>
<path d="M88.2 72.84H86.28V74.76H88.2V72.84Z" fill="#F9F9F9"/>
<path d="M3.72 74.76H1.8V76.68H3.72V74.76Z" fill="#F9F9F9"/>
<path d="M5.64 74.76H3.72V76.68H5.64V74.76Z" fill="#F9F9F9"/>
<path d="M7.56 74.76H5.64V76.68H7.56V74.76Z" fill="#F9F9F9"/>
<path d="M9.48 74.76H7.56V76.68H9.48V74.76Z" fill="#F9F9F9"/>
<path d="M11.4 74.76H9.48V76.68H11.4V74.76Z" fill="#F9F9F9"/>
<path d="M13.32 74.76H11.4V76.68H13.32V74.76Z" fill="#F9F9F9"/>
<path d="M15.24 74.76H13.32V76.68H15.24V74.76Z" fill="#F9F9F9"/>
<path d="M24.84 74.76H22.92V76.68H24.84V74.76Z" fill="#F9F9F9"/>
<path d="M26.76 74.76H24.84V76.68H26.76V74.76Z" fill="#F9F9F9"/>
<path d="M30.6 74.76H28.68V76.68H30.6V74.76Z" fill="#F9F9F9"/>
<path d="M34.44 74.76H32.52V76.68H34.44V74.76Z" fill="#F9F9F9"/>
<path d="M36.36 74.76H34.44V76.68H36.36V74.76Z" fill="#F9F9F9"/>
<path d="M38.28 74.76H36.36V76.68H38.28V74.76Z" fill="#F9F9F9"/>
<path d="M40.2 74.76H38.28V76.68H40.2V74.76Z" fill="#F9F9F9"/>
<path d="M42.12 74.76H40.2V76.68H42.12V74.76Z" fill="#F9F9F9"/>
<path d="M45.96 74.76H44.04V76.68H45.96V74.76Z" fill="#F9F9F9"/>
<path d="M49.8 74.76H47.88V76.68H49.8V74.76Z" fill="#F9F9F9"/>
<path d="M51.72 74.76H49.8V76.68H51.72V74.76Z" fill="#F9F9F9"/>
<path d="M55.56 74.76H53.64V76.68H55.56V74.76Z" fill="#F9F9F9"/>
<path d="M61.32 74.76H59.4V76.68H61.32V74.76Z" fill="#F9F9F9"/>
<path d="M63.24 74.76H61.32V76.68H63.24V74.76Z" fill="#F9F9F9"/>
<path d="M69 74.76H67.08V76.68H69V74.76Z" fill="#F9F9F9"/>
<path d="M70.92 74.76H69V76.68H70.92V74.76Z" fill="#F9F9F9"/>
<path d="M72.84 74.76H70.92V76.68H72.84V74.76Z" fill="#F9F9F9"/>
<path d="M76.68 74.76H74.76V76.68H76.68V74.76Z" fill="#F9F9F9"/>
<path d="M80.52 74.76H78.6V76.68H80.52V74.76Z" fill="#F9F9F9"/>
<path d="M82.44 74.76H80.52V76.68H82.44V74.76Z" fill="#F9F9F9"/>
<path d="M84.36 74.76H82.44V76.68H84.36V74.76Z" fill="#F9F9F9"/>
<path d="M88.2 74.76H86.28V76.68H88.2V74.76Z" fill="#F9F9F9"/>
<path d="M3.72 76.68H1.8V78.6H3.72V76.68Z" fill="#F9F9F9"/>
<path d="M15.24 76.68H13.32V78.6H15.24V76.68Z" fill="#F9F9F9"/>
<path d="M19.08 76.68H17.16V78.6H19.08V76.68Z" fill="#F9F9F9"/>
<path d="M24.84 76.68H22.92V78.6H24.84V76.68Z" fill="#F9F9F9"/>
<path d="M26.76 76.68H24.84V78.6H26.76V76.68Z" fill="#F9F9F9"/>
<path d="M30.6 76.68H28.68V78.6H30.6V76.68Z" fill="#F9F9F9"/>
<path d="M32.52 76.68H30.6V78.6H32.52V76.68Z" fill="#F9F9F9"/>
<path d="M38.28 76.68H36.36V78.6H38.28V76.68Z" fill="#F9F9F9"/>
<path d="M42.12 76.68H40.2V78.6H42.12V76.68Z" fill="#F9F9F9"/>
<path d="M49.8 76.68H47.88V78.6H49.8V76.68Z" fill="#F9F9F9"/>
<path d="M55.56 76.68H53.64V78.6H55.56V76.68Z" fill="#F9F9F9"/>
<path d="M57.48 76.68H55.56V78.6H57.48V76.68Z" fill="#F9F9F9"/>
<path d="M63.24 76.68H61.32V78.6H63.24V76.68Z" fill="#F9F9F9"/>
<path d="M65.16 76.68H63.24V78.6H65.16V76.68Z" fill="#F9F9F9"/>
<path d="M67.08 76.68H65.16V78.6H67.08V76.68Z" fill="#F9F9F9"/>
<path d="M70.92 76.68H69V78.6H70.92V76.68Z" fill="#F9F9F9"/>
<path d="M72.84 76.68H70.92V78.6H72.84V76.68Z" fill="#F9F9F9"/>
<path d="M80.52 76.68H78.6V78.6H80.52V76.68Z" fill="#F9F9F9"/>
<path d="M82.44 76.68H80.52V78.6H82.44V76.68Z" fill="#F9F9F9"/>
<path d="M84.36 76.68H82.44V78.6H84.36V76.68Z" fill="#F9F9F9"/>
<path d="M86.28 76.68H84.36V78.6H86.28V76.68Z" fill="#F9F9F9"/>
<path d="M3.72 78.6H1.8V80.52H3.72V78.6Z" fill="#F9F9F9"/>
<path d="M7.56 78.6H5.64V80.52H7.56V78.6Z" fill="#F9F9F9"/>
<path d="M9.48 78.6H7.56V80.52H9.48V78.6Z" fill="#F9F9F9"/>
<path d="M11.4 78.6H9.48V80.52H11.4V78.6Z" fill="#F9F9F9"/>
<path d="M15.24 78.6H13.32V80.52H15.24V78.6Z" fill="#F9F9F9"/>
<path d="M21 78.6H19.08V80.52H21V78.6Z" fill="#F9F9F9"/>
<path d="M24.84 78.6H22.92V80.52H24.84V78.6Z" fill="#F9F9F9"/>
<path d="M26.76 78.6H24.84V80.52H26.76V78.6Z" fill="#F9F9F9"/>
<path d="M32.52 78.6H30.6V80.52H32.52V78.6Z" fill="#F9F9F9"/>
<path d="M38.28 78.6H36.36V80.52H38.28V78.6Z" fill="#F9F9F9"/>
<path d="M42.12 78.6H40.2V80.52H42.12V78.6Z" fill="#F9F9F9"/>
<path d="M44.04 78.6H42.12V80.52H44.04V78.6Z" fill="#F9F9F9"/>
<path d="M45.96 78.6H44.04V80.52H45.96V78.6Z" fill="#F9F9F9"/>
<path d="M47.88 78.6H45.96V80.52H47.88V78.6Z" fill="#F9F9F9"/>
<path d="M49.8 78.6H47.88V80.52H49.8V78.6Z" fill="#F9F9F9"/>
<path d="M51.72 78.6H49.8V80.52H51.72V78.6Z" fill="#F9F9F9"/>
<path d="M53.64 78.6H51.72V80.52H53.64V78.6Z" fill="#F9F9F9"/>
<path d="M55.56 78.6H53.64V80.52H55.56V78.6Z" fill="#F9F9F9"/>
<path d="M57.48 78.6H55.56V80.52H57.48V78.6Z" fill="#F9F9F9"/>
<path d="M61.32 78.6H59.4V80.52H61.32V78.6Z" fill="#F9F9F9"/>
<path d="M63.24 78.6H61.32V80.52H63.24V78.6Z" fill="#F9F9F9"/>
<path d="M72.84 78.6H70.92V80.52H72.84V78.6Z" fill="#F9F9F9"/>
<path d="M74.76 78.6H72.84V80.52H74.76V78.6Z" fill="#F9F9F9"/>
<path d="M76.68 78.6H74.76V80.52H76.68V78.6Z" fill="#F9F9F9"/>
<path d="M78.6 78.6H76.68V80.52H78.6V78.6Z" fill="#F9F9F9"/>
<path d="M80.52 78.6H78.6V80.52H80.52V78.6Z" fill="#F9F9F9"/>
<path d="M84.36 78.6H82.44V80.52H84.36V78.6Z" fill="#F9F9F9"/>
<path d="M88.2 78.6H86.28V80.52H88.2V78.6Z" fill="#F9F9F9"/>
<path d="M3.72 80.52H1.8V82.44H3.72V80.52Z" fill="#F9F9F9"/>
<path d="M7.56 80.52H5.64V82.44H7.56V80.52Z" fill="#F9F9F9"/>
<path d="M9.48 80.52H7.56V82.44H9.48V80.52Z" fill="#F9F9F9"/>
<path d="M11.4 80.52H9.48V82.44H11.4V80.52Z" fill="#F9F9F9"/>
<path d="M15.24 80.52H13.32V82.44H15.24V80.52Z" fill="#F9F9F9"/>
<path d="M21 80.52H19.08V82.44H21V80.52Z" fill="#F9F9F9"/>
<path d="M24.84 80.52H22.92V82.44H24.84V80.52Z" fill="#F9F9F9"/>
<path d="M26.76 80.52H24.84V82.44H26.76V80.52Z" fill="#F9F9F9"/>
<path d="M28.68 80.52H26.76V82.44H28.68V80.52Z" fill="#F9F9F9"/>
<path d="M30.6 80.52H28.68V82.44H30.6V80.52Z" fill="#F9F9F9"/>
<path d="M32.52 80.52H30.6V82.44H32.52V80.52Z" fill="#F9F9F9"/>
<path d="M36.36 80.52H34.44V82.44H36.36V80.52Z" fill="#F9F9F9"/>
<path d="M38.28 80.52H36.36V82.44H38.28V80.52Z" fill="#F9F9F9"/>
<path d="M42.12 80.52H40.2V82.44H42.12V80.52Z" fill="#F9F9F9"/>
<path d="M47.88 80.52H45.96V82.44H47.88V80.52Z" fill="#F9F9F9"/>
<path d="M49.8 80.52H47.88V82.44H49.8V80.52Z" fill="#F9F9F9"/>
<path d="M51.72 80.52H49.8V82.44H51.72V80.52Z" fill="#F9F9F9"/>
<path d="M53.64 80.52H51.72V82.44H53.64V80.52Z" fill="#F9F9F9"/>
<path d="M59.4 80.52H57.48V82.44H59.4V80.52Z" fill="#F9F9F9"/>
<path d="M61.32 80.52H59.4V82.44H61.32V80.52Z" fill="#F9F9F9"/>
<path d="M65.16 80.52H63.24V82.44H65.16V80.52Z" fill="#F9F9F9"/>
<path d="M67.08 80.52H65.16V82.44H67.08V80.52Z" fill="#F9F9F9"/>
<path d="M72.84 80.52H70.92V82.44H72.84V80.52Z" fill="#F9F9F9"/>
<path d="M76.68 80.52H74.76V82.44H76.68V80.52Z" fill="#F9F9F9"/>
<path d="M80.52 80.52H78.6V82.44H80.52V80.52Z" fill="#F9F9F9"/>
<path d="M82.44 80.52H80.52V82.44H82.44V80.52Z" fill="#F9F9F9"/>
<path d="M84.36 80.52H82.44V82.44H84.36V80.52Z" fill="#F9F9F9"/>
<path d="M88.2 80.52H86.28V82.44H88.2V80.52Z" fill="#F9F9F9"/>
<path d="M3.72 82.44H1.8V84.36H3.72V82.44Z" fill="#F9F9F9"/>
<path d="M7.56 82.44H5.64V84.36H7.56V82.44Z" fill="#F9F9F9"/>
<path d="M9.48 82.44H7.56V84.36H9.48V82.44Z" fill="#F9F9F9"/>
<path d="M11.4 82.44H9.48V84.36H11.4V82.44Z" fill="#F9F9F9"/>
<path d="M15.24 82.44H13.32V84.36H15.24V82.44Z" fill="#F9F9F9"/>
<path d="M22.92 82.44H21V84.36H22.92V82.44Z" fill="#F9F9F9"/>
<path d="M26.76 82.44H24.84V84.36H26.76V82.44Z" fill="#F9F9F9"/>
<path d="M30.6 82.44H28.68V84.36H30.6V82.44Z" fill="#F9F9F9"/>
<path d="M38.28 82.44H36.36V84.36H38.28V82.44Z" fill="#F9F9F9"/>
<path d="M42.12 82.44H40.2V84.36H42.12V82.44Z" fill="#F9F9F9"/>
<path d="M45.96 82.44H44.04V84.36H45.96V82.44Z" fill="#F9F9F9"/>
<path d="M53.64 82.44H51.72V84.36H53.64V82.44Z" fill="#F9F9F9"/>
<path d="M57.48 82.44H55.56V84.36H57.48V82.44Z" fill="#F9F9F9"/>
<path d="M61.32 82.44H59.4V84.36H61.32V82.44Z" fill="#F9F9F9"/>
<path d="M65.16 82.44H63.24V84.36H65.16V82.44Z" fill="#F9F9F9"/>
<path d="M76.68 82.44H74.76V84.36H76.68V82.44Z" fill="#F9F9F9"/>
<path d="M82.44 82.44H80.52V84.36H82.44V82.44Z" fill="#F9F9F9"/>
<path d="M84.36 82.44H82.44V84.36H84.36V82.44Z" fill="#F9F9F9"/>
<path d="M3.72 84.36H1.8V86.28H3.72V84.36Z" fill="#F9F9F9"/>
<path d="M15.24 84.36H13.32V86.28H15.24V84.36Z" fill="#F9F9F9"/>
<path d="M24.84 84.36H22.92V86.28H24.84V84.36Z" fill="#F9F9F9"/>
<path d="M32.52 84.36H30.6V86.28H32.52V84.36Z" fill="#F9F9F9"/>
<path d="M34.44 84.36H32.52V86.28H34.44V84.36Z" fill="#F9F9F9"/>
<path d="M42.12 84.36H40.2V86.28H42.12V84.36Z" fill="#F9F9F9"/>
<path d="M49.8 84.36H47.88V86.28H49.8V84.36Z" fill="#F9F9F9"/>
<path d="M53.64 84.36H51.72V86.28H53.64V84.36Z" fill="#F9F9F9"/>
<path d="M57.48 84.36H55.56V86.28H57.48V84.36Z" fill="#F9F9F9"/>
<path d="M65.16 84.36H63.24V86.28H65.16V84.36Z" fill="#F9F9F9"/>
<path d="M67.08 84.36H65.16V86.28H67.08V84.36Z" fill="#F9F9F9"/>
<path d="M72.84 84.36H70.92V86.28H72.84V84.36Z" fill="#F9F9F9"/>
<path d="M76.68 84.36H74.76V86.28H76.68V84.36Z" fill="#F9F9F9"/>
<path d="M80.52 84.36H78.6V86.28H80.52V84.36Z" fill="#F9F9F9"/>
<path d="M84.36 84.36H82.44V86.28H84.36V84.36Z" fill="#F9F9F9"/>
<path d="M88.2 84.36H86.28V86.28H88.2V84.36Z" fill="#F9F9F9"/>
<path d="M3.72 86.28H1.8V88.2H3.72V86.28Z" fill="#F9F9F9"/>
<path d="M5.64 86.28H3.72V88.2H5.64V86.28Z" fill="#F9F9F9"/>
<path d="M7.56 86.28H5.64V88.2H7.56V86.28Z" fill="#F9F9F9"/>
<path d="M9.48 86.28H7.56V88.2H9.48V86.28Z" fill="#F9F9F9"/>
<path d="M11.4 86.28H9.48V88.2H11.4V86.28Z" fill="#F9F9F9"/>
<path d="M13.32 86.28H11.4V88.2H13.32V86.28Z" fill="#F9F9F9"/>
<path d="M15.24 86.28H13.32V88.2H15.24V86.28Z" fill="#F9F9F9"/>
<path d="M21 86.28H19.08V88.2H21V86.28Z" fill="#F9F9F9"/>
<path d="M22.92 86.28H21V88.2H22.92V86.28Z" fill="#F9F9F9"/>
<path d="M24.84 86.28H22.92V88.2H24.84V86.28Z" fill="#F9F9F9"/>
<path d="M28.68 86.28H26.76V88.2H28.68V86.28Z" fill="#F9F9F9"/>
<path d="M34.44 86.28H32.52V88.2H34.44V86.28Z" fill="#F9F9F9"/>
<path d="M38.28 86.28H36.36V88.2H38.28V86.28Z" fill="#F9F9F9"/>
<path d="M44.04 86.28H42.12V88.2H44.04V86.28Z" fill="#F9F9F9"/>
<path d="M45.96 86.28H44.04V88.2H45.96V86.28Z" fill="#F9F9F9"/>
<path d="M51.72 86.28H49.8V88.2H51.72V86.28Z" fill="#F9F9F9"/>
<path d="M57.48 86.28H55.56V88.2H57.48V86.28Z" fill="#F9F9F9"/>
<path d="M61.32 86.28H59.4V88.2H61.32V86.28Z" fill="#F9F9F9"/>
<path d="M69 86.28H67.08V88.2H69V86.28Z" fill="#F9F9F9"/>
<path d="M70.92 86.28H69V88.2H70.92V86.28Z" fill="#F9F9F9"/>
<path d="M72.84 86.28H70.92V88.2H72.84V86.28Z" fill="#F9F9F9"/>
<path d="M78.6 86.28H76.68V88.2H78.6V86.28Z" fill="#F9F9F9"/>
<path d="M80.52 86.28H78.6V88.2H80.52V86.28Z" fill="#F9F9F9"/>
<path d="M84.36 86.28H82.44V88.2H84.36V86.28Z" fill="#F9F9F9"/>
</svg>
